<?xml version="1.0" encoding="UTF-8"?><svg xmlns="http://www.w3.org/2000/svg" xmlns:xlink="http://www.w3.org/1999/xlink" fill-opacity="1" color-rendering="auto" color-interpolation="auto" text-rendering="auto" stroke="black" stroke-linecap="square" width="647" stroke-miterlimit="10" shape-rendering="auto" stroke-opacity="1" fill="black" stroke-dasharray="none" font-weight="normal" stroke-width="1" height="545" font-family="'Dialog'" font-style="normal" stroke-linejoin="miter" font-size="12px" stroke-dashoffset="0" image-rendering="auto">
  <!--Generated by ySVG 2.5-->
  <defs id="genericDefs"/>
  <g>
    <defs id="defs1">
      <clipPath clipPathUnits="userSpaceOnUse" id="clipPath1">
        <path d="M0 0 L647 0 L647 545 L0 545 L0 0 Z"/>
      </clipPath>
      <clipPath clipPathUnits="userSpaceOnUse" id="clipPath2">
        <path d="M428 112 L1075 112 L1075 657 L428 657 L428 112 Z"/>
      </clipPath>
    </defs>
    <g fill="white" text-rendering="geometricPrecision" shape-rendering="geometricPrecision" transform="translate(-428,-112)" stroke="white">
      <rect x="428" width="647" height="545" y="112" clip-path="url(#clipPath2)" stroke="none"/>
    </g>
    <g text-rendering="geometricPrecision" stroke-miterlimit="1.45" shape-rendering="geometricPrecision" font-family="'Trebuchet MS'" transform="matrix(1,0,0,1,-428,-112)" stroke-linecap="butt">
      <text x="603.4185" xml:space="preserve" y="633.5008" clip-path="url(#clipPath2)" stroke="none">Alice: 10, Bob: 0, Charlie: 0</text>
      <rect x="589.4926" y="616.568" clip-path="url(#clipPath2)" fill="none" width="177.7815" rx="4" ry="4" height="25.264"/>
    </g>
    <g fill="rgb(255,255,204)" text-rendering="geometricPrecision" shape-rendering="geometricPrecision" transform="matrix(1,0,0,1,-428,-112)" stroke="rgb(255,255,204)">
      <rect x="443.9941" y="515.424" clip-path="url(#clipPath2)" width="177.7815" rx="4" ry="4" height="25.264" stroke="none"/>
    </g>
    <g text-rendering="geometricPrecision" stroke-miterlimit="1.45" shape-rendering="geometricPrecision" font-family="'Trebuchet MS'" transform="matrix(1,0,0,1,-428,-112)" stroke-linecap="butt">
      <text x="461.0665" xml:space="preserve" y="532.3568" clip-path="url(#clipPath2)" stroke="none">Alice: 4, Bob: 6, Charlie: 0</text>
      <rect x="443.9941" y="515.424" clip-path="url(#clipPath2)" fill="none" width="177.7815" rx="4" ry="4" height="25.264"/>
      <text x="606.565" xml:space="preserve" y="450.7568" clip-path="url(#clipPath2)" stroke="none">Alice: 3, Bob: 0, Charlie: 7</text>
      <rect x="589.4926" y="433.824" clip-path="url(#clipPath2)" fill="none" width="177.7815" rx="4" ry="4" height="25.264"/>
    </g>
    <g fill="rgb(255,255,204)" text-rendering="geometricPrecision" shape-rendering="geometricPrecision" transform="matrix(1,0,0,1,-428,-112)" stroke="rgb(255,255,204)">
      <rect x="744.5911" y="515.424" clip-path="url(#clipPath2)" width="177.7815" rx="4" ry="4" height="25.264" stroke="none"/>
    </g>
    <g text-rendering="geometricPrecision" stroke-miterlimit="1.45" shape-rendering="geometricPrecision" font-family="'Trebuchet MS'" transform="matrix(1,0,0,1,-428,-112)" stroke-linecap="butt">
      <text x="761.6635" xml:space="preserve" y="532.3568" clip-path="url(#clipPath2)" stroke="none">Alice: 6, Bob: 0, Charlie: 4</text>
      <rect x="744.5911" y="515.424" clip-path="url(#clipPath2)" fill="none" width="177.7815" rx="4" ry="4" height="25.264"/>
      <text x="606.565" xml:space="preserve" y="369.1568" clip-path="url(#clipPath2)" stroke="none">Alice: 3, Bob: 4, Charlie: 3</text>
      <rect x="589.4926" y="352.224" clip-path="url(#clipPath2)" fill="none" width="177.7815" rx="4" ry="4" height="25.264"/>
    </g>
    <g fill="rgb(230,255,230)" text-rendering="geometricPrecision" shape-rendering="geometricPrecision" transform="matrix(1,0,0,1,-428,-112)" stroke="rgb(230,255,230)">
      <rect x="759.6741" y="226.624" clip-path="url(#clipPath2)" width="177.7815" rx="4" ry="4" height="25.264" stroke="none"/>
    </g>
    <g text-rendering="geometricPrecision" stroke-miterlimit="1.45" shape-rendering="geometricPrecision" font-family="'Trebuchet MS'" transform="matrix(1,0,0,1,-428,-112)" stroke-linecap="butt">
      <text x="776.7465" xml:space="preserve" y="243.5568" clip-path="url(#clipPath2)" stroke="none">Alice: 2, Bob: 0, Charlie: 8</text>
      <rect x="759.6741" y="226.624" clip-path="url(#clipPath2)" fill="none" width="177.7815" rx="4" ry="4" height="25.264"/>
    </g>
    <g fill="rgb(230,255,230)" text-rendering="geometricPrecision" shape-rendering="geometricPrecision" transform="matrix(1,0,0,1,-428,-112)" stroke="rgb(230,255,230)">
      <rect x="881.5911" y="352.224" clip-path="url(#clipPath2)" width="177.7815" rx="4" ry="4" height="25.264" stroke="none"/>
    </g>
    <g text-rendering="geometricPrecision" stroke-miterlimit="1.45" shape-rendering="geometricPrecision" font-family="'Trebuchet MS'" transform="matrix(1,0,0,1,-428,-112)" stroke-linecap="butt">
      <text x="898.6635" xml:space="preserve" y="369.1568" clip-path="url(#clipPath2)" stroke="none">Alice: 6, Bob: 4, Charlie: 0</text>
      <rect x="881.5911" y="352.224" clip-path="url(#clipPath2)" fill="none" width="177.7815" rx="4" ry="4" height="25.264"/>
      <text x="606.565" xml:space="preserve" y="287.5568" clip-path="url(#clipPath2)" stroke="none">Alice: 0, Bob: 6, Charlie: 4</text>
      <rect x="589.4926" y="270.624" clip-path="url(#clipPath2)" fill="none" width="177.7815" rx="4" ry="4" height="25.264"/>
      <text x="867.4635" xml:space="preserve" y="144.3568" clip-path="url(#clipPath2)" stroke="none">Alice: 2, Bob: 4, Charlie: 4</text>
      <rect x="850.3911" y="127.424" clip-path="url(#clipPath2)" fill="none" width="177.7815" rx="4" ry="4" height="25.264"/>
      <path fill="none" d="M660.2316 616.5817 L557.6415 545.2657" clip-path="url(#clipPath2)"/>
      <path d="M551.0728 540.6995 L558.072 551.6544 L558.4626 545.8365 L563.7798 543.4434 Z" clip-path="url(#clipPath2)" stroke="none"/>
      <rect x="600.0306" y="569.336" clip-path="url(#clipPath2)" fill="white" width="11.207" height="18.584" stroke="none"/>
      <rect stroke-linecap="square" x="600.0306" y="569.336" clip-path="url(#clipPath2)" fill="none" width="11.207" height="18.584" stroke-miterlimit="1.6"/>
      <text x="602.0306" xml:space="preserve" y="583.4005" clip-path="url(#clipPath2)" font-family="'Verdana'" stroke="none">a</text>
      <path fill="none" d="M678.3834 616.5739 L678.3834 467.1235" clip-path="url(#clipPath2)"/>
      <path d="M678.3834 459.1235 L673.3834 471.1235 L678.3834 468.1235 L683.3834 471.1235 Z" clip-path="url(#clipPath2)" stroke="none"/>
      <rect x="672.6451" y="528.536" clip-path="url(#clipPath2)" fill="white" width="11.4766" height="18.584" stroke="none"/>
      <rect stroke-linecap="square" x="672.6451" y="528.536" clip-path="url(#clipPath2)" fill="none" width="11.4766" height="18.584" stroke-miterlimit="1.6"/>
      <text x="674.6451" xml:space="preserve" y="542.6005" clip-path="url(#clipPath2)" font-family="'Verdana'" stroke="none">b</text>
      <path fill="none" d="M697.7328 616.5817 L807.3928 545.0693" clip-path="url(#clipPath2)"/>
      <path d="M814.0939 540.6995 L801.3111 543.0661 L806.5552 545.6156 L806.7734 551.4424 Z" clip-path="url(#clipPath2)" stroke="none"/>
      <rect x="750.8066" y="569.336" clip-path="url(#clipPath2)" fill="white" width="10.252" height="18.584" stroke="none"/>
      <rect stroke-linecap="square" x="750.8066" y="569.336" clip-path="url(#clipPath2)" fill="none" width="10.252" height="18.584" stroke-miterlimit="1.6"/>
      <text x="752.8066" xml:space="preserve" y="583.4005" clip-path="url(#clipPath2)" font-family="'Verdana'" stroke="none">c</text>
      <path fill="none" d="M678.3834 433.8255 L678.3834 385.4847" clip-path="url(#clipPath2)"/>
      <path d="M678.3834 377.4847 L673.3834 389.4847 L678.3834 386.4847 L683.3834 389.4847 Z" clip-path="url(#clipPath2)" stroke="none"/>
      <rect x="672.6451" y="396.364" clip-path="url(#clipPath2)" fill="white" width="11.4766" height="18.584" stroke="none"/>
      <rect stroke-linecap="square" x="672.6451" y="396.364" clip-path="url(#clipPath2)" fill="none" width="11.4766" height="18.584" stroke-miterlimit="1.6"/>
      <text x="674.6451" xml:space="preserve" y="410.4285" clip-path="url(#clipPath2)" font-family="'Verdana'" stroke="none">d</text>
      <path fill="none" d="M834.1428 515.3998 L847.4874 259.886" clip-path="url(#clipPath2)"/>
      <path d="M847.9047 251.8969 L842.2855 263.6197 L847.4352 260.8846 L852.2719 264.1414 Z" clip-path="url(#clipPath2)" stroke="none"/>
      <rect x="835.8974" y="374.364" clip-path="url(#clipPath2)" fill="white" width="10.252" height="18.584" stroke="none"/>
      <rect stroke-linecap="square" x="835.8974" y="374.364" clip-path="url(#clipPath2)" fill="none" width="10.252" height="18.584" stroke-miterlimit="1.6"/>
      <text x="837.8973" xml:space="preserve" y="388.4285" clip-path="url(#clipPath2)" font-family="'Verdana'" stroke="none">c</text>
      <path fill="none" d="M844.1014 515.4056 L954.7551 383.5903" clip-path="url(#clipPath2)"/>
      <path d="M959.8987 377.4631 L948.3538 383.4392 L954.1122 384.3562 L956.0129 389.8687 Z" clip-path="url(#clipPath2)" stroke="none"/>
      <rect x="896.2436" y="437.164" clip-path="url(#clipPath2)" fill="white" width="11.4766" height="18.584" stroke="none"/>
      <rect stroke-linecap="square" x="896.2436" y="437.164" clip-path="url(#clipPath2)" fill="none" width="11.4766" height="18.584" stroke-miterlimit="1.6"/>
      <text x="898.2436" xml:space="preserve" y="451.2285" clip-path="url(#clipPath2)" font-family="'Verdana'" stroke="none">d</text>
    </g>
    <g stroke-linecap="round" transform="matrix(1,0,0,1,-428,-112)" stroke-dashoffset="2" text-rendering="geometricPrecision" shape-rendering="geometricPrecision" stroke-dasharray="0,8" stroke-width="2" stroke-miterlimit="1.45">
      <path fill="none" d="M535.4517 515.407 L555.1132 418.5202 L560.1146 397.1945 L566.0254 378.0276 L572.8456 361.0195 L580.5752 346.1701 L589.2142 333.4795 L593.8747 327.9437 L598.7626 322.9476 L603.8777 318.4912 L609.2203 314.5745 L614.7903 311.1975 L620.5875 308.3602 L641.033 299.4795" clip-path="url(#clipPath2)"/>
      <path d="M649.2879 295.8939 L634.6646 296.113 L640.0012 299.9277 L639.1465 306.4316 Z" clip-path="url(#clipPath2)" stroke="none"/>
      <rect x="561.8575" y="350.7341" clip-path="url(#clipPath2)" fill="white" width="10.252" height="18.584" stroke="none"/>
    </g>
    <g text-rendering="geometricPrecision" stroke-miterlimit="1.6" shape-rendering="geometricPrecision" transform="matrix(1,0,0,1,-428,-112)">
      <rect fill="none" x="561.8575" width="10.252" height="18.584" y="350.7341" clip-path="url(#clipPath2)"/>
      <text stroke-linecap="butt" x="563.8575" y="364.7986" clip-path="url(#clipPath2)" font-family="'Verdana'" stroke="none" stroke-miterlimit="1.45" xml:space="preserve">c</text>
    </g>
    <g stroke-linecap="round" transform="matrix(1,0,0,1,-428,-112)" stroke-dashoffset="2" text-rendering="geometricPrecision" shape-rendering="geometricPrecision" stroke-dasharray="0,8" stroke-width="2" stroke-miterlimit="1.45">
      <path fill="none" d="M830.2057 515.4301 L803.4619 412.3602 L796.9984 389.9321 L789.889 369.9777 L782.1337 352.497 L773.7324 337.4901 L764.6851 324.957 L759.9192 319.6181 L754.9918 314.8976 L749.903 310.7956 L744.6526 307.312 L739.2408 304.4469 L733.6675 302.2002 L723.7444 298.7999" clip-path="url(#clipPath2)"/>
      <path d="M715.2305 295.8824 L726.178 305.5799 L724.8087 299.1646 L729.8249 294.9374 Z" clip-path="url(#clipPath2)" stroke="none"/>
      <rect x="786.8114" y="360.4937" clip-path="url(#clipPath2)" fill="white" width="11.207" height="18.584" stroke="none"/>
    </g>
    <g text-rendering="geometricPrecision" stroke-miterlimit="1.6" shape-rendering="geometricPrecision" transform="matrix(1,0,0,1,-428,-112)">
      <rect fill="none" x="786.8114" width="11.207" height="18.584" y="360.4937" clip-path="url(#clipPath2)"/>
      <text stroke-linecap="butt" x="788.8113" y="374.5582" clip-path="url(#clipPath2)" font-family="'Verdana'" stroke="none" stroke-miterlimit="1.45" xml:space="preserve">a</text>
    </g>
    <g stroke-linecap="round" transform="matrix(1,0,0,1,-428,-112)" stroke-dashoffset="2" text-rendering="geometricPrecision" shape-rendering="geometricPrecision" stroke-dasharray="0,8" stroke-width="2" stroke-miterlimit="1.45">
      <path fill="none" d="M860.1038 226.638 L921.6678 159.3171" clip-path="url(#clipPath2)"/>
      <path d="M927.7415 152.6755 L914.48 158.8418 L920.9086 160.1473 L922.782 166.4339 Z" clip-path="url(#clipPath2)" stroke="none"/>
      <rect x="888.1851" y="180.364" clip-path="url(#clipPath2)" fill="white" width="11.4766" height="18.584" stroke="none"/>
    </g>
    <g text-rendering="geometricPrecision" stroke-miterlimit="1.6" shape-rendering="geometricPrecision" transform="matrix(1,0,0,1,-428,-112)">
      <rect fill="none" x="888.1851" width="11.4766" height="18.584" y="180.364" clip-path="url(#clipPath2)"/>
      <text stroke-linecap="butt" x="890.1851" y="194.4285" clip-path="url(#clipPath2)" font-family="'Verdana'" stroke="none" stroke-miterlimit="1.45" xml:space="preserve">d</text>
    </g>
    <g stroke-linecap="round" transform="matrix(1,0,0,1,-428,-112)" stroke-dashoffset="2" text-rendering="geometricPrecision" shape-rendering="geometricPrecision" stroke-dasharray="0,8" stroke-width="2" stroke-miterlimit="1.45">
      <path fill="none" d="M975.6492 352.1912 L1000.6318 290.9602 L1005.8087 276.1539 L1009.0049 261.9651 L1010.2207 248.3939 L1010.0859 241.8398 L1009.4559 235.4401 L1008.3309 229.1948 L1006.7107 223.1039 L1004.5954 217.1673 L1001.9849 211.3851 L998.8793 205.7573 L995.2786 200.2839 L986.5919 189.8002 L957.5197 159.2322" clip-path="url(#clipPath2)"/>
      <path d="M951.3173 152.7106 L956.5449 166.3694 L958.2949 160.0474 L964.6968 158.6164 Z" clip-path="url(#clipPath2)" stroke="none"/>
      <rect x="1011.5925" y="242.2409" clip-path="url(#clipPath2)" fill="white" width="10.252" height="18.584" stroke="none"/>
    </g>
    <g text-rendering="geometricPrecision" stroke-miterlimit="1.6" shape-rendering="geometricPrecision" transform="matrix(1,0,0,1,-428,-112)">
      <rect fill="none" x="1011.5925" width="10.252" height="18.584" y="242.2409" clip-path="url(#clipPath2)"/>
      <text stroke-linecap="butt" x="1013.5925" y="256.3054" clip-path="url(#clipPath2)" font-family="'Verdana'" stroke="none" stroke-miterlimit="1.45" xml:space="preserve">c</text>
    </g>
  </g>
</svg>
