<?xml version="1.0" encoding="UTF-8"?><svg xmlns="http://www.w3.org/2000/svg" xmlns:xlink="http://www.w3.org/1999/xlink" fill-opacity="1" color-rendering="auto" color-interpolation="auto" text-rendering="auto" stroke="black" stroke-linecap="square" width="770" stroke-miterlimit="10" shape-rendering="auto" stroke-opacity="1" fill="black" stroke-dasharray="none" font-weight="normal" stroke-width="1" height="430" font-family="'Dialog'" font-style="normal" stroke-linejoin="miter" font-size="12px" stroke-dashoffset="0" image-rendering="auto">
  <!--Generated by ySVG 2.5-->
  <defs id="genericDefs"/>
  <g>
    <defs id="defs1">
      <clipPath clipPathUnits="userSpaceOnUse" id="clipPath1">
        <path d="M0 0 L770 0 L770 430 L0 430 L0 0 Z"/>
      </clipPath>
      <clipPath clipPathUnits="userSpaceOnUse" id="clipPath2">
        <path d="M275 245 L1045 245 L1045 675 L275 675 L275 245 Z"/>
      </clipPath>
    </defs>
    <g fill="white" text-rendering="geometricPrecision" shape-rendering="geometricPrecision" transform="translate(-275,-245)" stroke="white">
      <rect x="275" width="770" height="430" y="245" clip-path="url(#clipPath2)" stroke="none"/>
    </g>
    <g text-rendering="geometricPrecision" stroke-miterlimit="1.45" shape-rendering="geometricPrecision" font-family="'Trebuchet MS'" transform="matrix(1,0,0,1,-275,-245)" stroke-linecap="butt">
      <text x="571.168" xml:space="preserve" y="635.7708" clip-path="url(#clipPath2)" stroke="none">Alice: 8, Bob: 3, Charlie: 3</text>
      <rect x="561.6956" y="618.838" clip-path="url(#clipPath2)" fill="none" width="162.5815" rx="4" ry="4" height="25.264"/>
      <text x="491.0787" xml:space="preserve" y="503.4528" clip-path="url(#clipPath2)" stroke="none">Alice: 8, Bob: 0, Charlie: 6</text>
      <rect x="481.6063" y="486.52" clip-path="url(#clipPath2)" fill="none" width="162.5815" rx="4" ry="4" height="25.264"/>
      <text x="304.088" xml:space="preserve" y="503.4528" clip-path="url(#clipPath2)" stroke="none">Alice: 3, Bob: 8, Charlie: 3</text>
      <rect x="292.6156" y="486.52" clip-path="url(#clipPath2)" fill="none" width="166.5815" rx="4" ry="4" height="25.264"/>
      <text x="865.0602" xml:space="preserve" y="503.4528" clip-path="url(#clipPath2)" stroke="none">Alice: 4, Bob: 3, Charlie: 7</text>
      <rect x="855.5878" y="486.52" clip-path="url(#clipPath2)" fill="none" width="162.5815" rx="4" ry="4" height="25.264"/>
      <text x="302.088" xml:space="preserve" y="277.4218" clip-path="url(#clipPath2)" stroke="none">Alice: 4, Bob: 5, Charlie: 5</text>
      <rect x="290.6156" y="260.489" clip-path="url(#clipPath2)" fill="none" width="166.5815" rx="4" ry="4" height="25.264"/>
      <text x="841.6771" font-size="14px" y="652.1616" clip-path="url(#clipPath2)" stroke="none" font-weight="bold" xml:space="preserve">Global state "Zero"</text>
      <text x="302.088" xml:space="preserve" y="370.8" clip-path="url(#clipPath2)" stroke="none">Alice: 9, Bob: 0, Charlie: 5</text>
      <rect x="292.6156" y="354.202" clip-path="url(#clipPath2)" fill="none" width="162.5815" rx="4" ry="4" height="25.264"/>
      <text x="491.0787" xml:space="preserve" y="371.1348" clip-path="url(#clipPath2)" stroke="none">Alice: 9, Bob: 0, Charlie: 5</text>
      <rect x="479.6063" y="354.202" clip-path="url(#clipPath2)" fill="none" width="166.5815" rx="4" ry="4" height="25.264"/>
      <text x="678.0694" xml:space="preserve" y="503.4528" clip-path="url(#clipPath2)" stroke="none">Alice: 3, Bob: 8, Charlie: 3</text>
      <rect x="666.597" y="486.52" clip-path="url(#clipPath2)" fill="none" width="166.5815" rx="4" ry="4" height="25.264"/>
      <text x="684.5137" xml:space="preserve" y="371.1348" clip-path="url(#clipPath2)" stroke="none">Alice: 4, Bob: 0, Charlie: 10</text>
      <rect x="676.1878" y="354.202" clip-path="url(#clipPath2)" fill="none" width="166.5815" rx="4" ry="4" height="25.264"/>
      <text x="871.7015" xml:space="preserve" y="371.1348" clip-path="url(#clipPath2)" stroke="none">Alice: 4, Bob: 0, Charlie: 10</text>
      <rect x="863.3756" y="354.202" clip-path="url(#clipPath2)" fill="none" width="166.5815" rx="4" ry="4" height="25.264"/>
      <path fill="none" d="M635.3411 618.8391 L574.6978 518.6484" clip-path="url(#clipPath2)"/>
      <path d="M570.5553 511.8045 L572.4916 524.6595 L575.2156 519.504 L581.0465 519.4814 Z" clip-path="url(#clipPath2)" stroke="none"/>
      <rect x="586.926" y="556.019" clip-path="url(#clipPath2)" fill="rgb(255,102,0)" width="32.0312" height="18.584" stroke="none"/>
      <rect stroke-linecap="square" x="586.926" y="556.019" clip-path="url(#clipPath2)" fill="none" width="32.0312" height="18.584" stroke-miterlimit="1.6"/>
      <text x="588.926" xml:space="preserve" y="570.0834" clip-path="url(#clipPath2)" font-family="'Verdana'" stroke="none">b2:b</text>
      <path fill="none" d="M617.4585 618.8229 L408.5805 515.3396" clip-path="url(#clipPath2)"/>
      <path d="M401.412 511.7881 L409.9451 521.5956 L409.4765 515.7835 L414.3844 512.635 Z" clip-path="url(#clipPath2)" stroke="none"/>
      <rect x="493.5654" y="556.019" clip-path="url(#clipPath2)" fill="rgb(255,204,0)" width="31.7617" height="18.584" stroke="none"/>
      <rect stroke-linecap="square" x="493.5654" y="556.019" clip-path="url(#clipPath2)" fill="none" width="31.7617" height="18.584" stroke-miterlimit="1.6"/>
      <text x="495.5654" xml:space="preserve" y="570.0834" clip-path="url(#clipPath2)" font-family="'Verdana'" stroke="none">b1:a</text>
      <path fill="none" d="M671.0768 618.8229 L901.5175 515.0724" clip-path="url(#clipPath2)"/>
      <path d="M908.8123 511.7882 L895.8174 512.1554 L900.6057 515.483 L899.9228 521.2738 Z" clip-path="url(#clipPath2)" stroke="none"/>
      <rect x="774.5291" y="556.019" clip-path="url(#clipPath2)" fill="rgb(204,255,204)" width="30.8066" height="18.584" stroke="none"/>
      <rect stroke-linecap="square" x="774.5291" y="556.019" clip-path="url(#clipPath2)" fill="none" width="30.8066" height="18.584" stroke-miterlimit="1.6"/>
      <text x="776.5291" xml:space="preserve" y="570.0834" clip-path="url(#clipPath2)" font-family="'Verdana'" stroke="none">b4:c</text>
      <path fill="none" stroke-dasharray="18,6" d="M874.3361 634.5013 L843.3705 620.3127 L831.5818 615.3685 L820.1709 611.5123 L809.1379 608.744 L798.4827 607.0637 L788.2053 606.4713 L778.3057 606.9669 L768.7839 608.5504 L759.64 611.2219 L733.6942 620.5383" stroke-width="3" clip-path="url(#clipPath2)"/>
      <path stroke-dasharray="18,6" d="M724.2825 623.9177 L740.5121 624.7308 L734.8707 620.1158 L736.2878 612.9662 Z" stroke-width="3" clip-path="url(#clipPath2)" stroke="none"/>
      <path fill="none" d="M544.8331 486.5049 L398.5081 384.0584" clip-path="url(#clipPath2)"/>
      <path d="M391.9546 379.4702 L398.9171 390.4485 L399.3272 384.6319 L404.6524 382.2566 Z" clip-path="url(#clipPath2)" stroke="none"/>
      <rect x="452.386" y="423.701" clip-path="url(#clipPath2)" fill="rgb(255,102,0)" width="32.0312" height="18.584" stroke="none"/>
      <rect stroke-linecap="square" x="452.386" y="423.701" clip-path="url(#clipPath2)" fill="none" width="32.0312" height="18.584" stroke-miterlimit="1.6"/>
      <text x="454.386" xml:space="preserve" y="437.7655" clip-path="url(#clipPath2)" font-family="'Verdana'" stroke="none">b5:d</text>
      <path fill="none" d="M373.9063 354.1589 L373.9063 293.7436" clip-path="url(#clipPath2)"/>
      <path d="M373.9063 285.7436 L368.9063 297.7436 L373.9063 294.7436 L378.9063 297.7436 Z" clip-path="url(#clipPath2)" stroke="none"/>
      <rect x="358.0254" y="310.6855" clip-path="url(#clipPath2)" fill="rgb(204,255,255)" width="31.7617" height="18.584" stroke="none"/>
      <rect stroke-linecap="square" x="358.0254" y="310.6855" clip-path="url(#clipPath2)" fill="none" width="31.7617" height="18.584" stroke-miterlimit="1.6"/>
      <text x="360.0255" xml:space="preserve" y="324.75" clip-path="url(#clipPath2)" font-family="'Verdana'" stroke="none">b9:a</text>
      <path fill="none" d="M562.897 486.5211 L562.897 387.4865" clip-path="url(#clipPath2)"/>
      <path d="M562.897 379.4865 L557.897 391.4865 L562.897 388.4865 L567.897 391.4865 Z" clip-path="url(#clipPath2)" stroke="none"/>
      <rect x="546.8814" y="423.701" clip-path="url(#clipPath2)" fill="rgb(255,204,0)" width="32.0312" height="18.584" stroke="none"/>
      <rect stroke-linecap="square" x="546.8814" y="423.701" clip-path="url(#clipPath2)" fill="none" width="32.0312" height="18.584" stroke-miterlimit="1.6"/>
      <text x="548.8814" xml:space="preserve" y="437.7655" clip-path="url(#clipPath2)" font-family="'Verdana'" stroke="none">b6:d</text>
      <path fill="none" d="M653.191 618.8391 L734.6382 518.0273" clip-path="url(#clipPath2)"/>
      <path d="M739.6657 511.8045 L728.2352 517.9966 L734.0098 518.8052 L736.0137 524.2809 Z" clip-path="url(#clipPath2)" stroke="none"/>
      <rect x="680.5562" y="556.019" clip-path="url(#clipPath2)" fill="rgb(204,255,255)" width="31.7617" height="18.584" stroke="none"/>
      <rect stroke-linecap="square" x="680.5562" y="556.019" clip-path="url(#clipPath2)" fill="none" width="31.7617" height="18.584" stroke-miterlimit="1.6"/>
      <text x="682.5562" xml:space="preserve" y="570.0834" clip-path="url(#clipPath2)" font-family="'Verdana'" stroke="none">b3:a</text>
      <path fill="none" d="M581.6865 486.5049 L734.0687 383.9373" clip-path="url(#clipPath2)"/>
      <path d="M740.7053 379.4702 L727.9584 382.0229 L733.2391 384.4956 L733.5423 390.3187 Z" clip-path="url(#clipPath2)" stroke="none"/>
      <rect x="645.7845" y="423.701" clip-path="url(#clipPath2)" fill="rgb(204,255,204)" width="30.8066" height="18.584" stroke="none"/>
      <rect stroke-linecap="square" x="645.7845" y="423.701" clip-path="url(#clipPath2)" fill="none" width="30.8066" height="18.584" stroke-miterlimit="1.6"/>
      <text x="647.7845" xml:space="preserve" y="437.7655" clip-path="url(#clipPath2)" font-family="'Verdana'" stroke="none">b7:c</text>
      <path fill="none" d="M599.5781 486.5049 L902.4539 382.0778" clip-path="url(#clipPath2)"/>
      <path d="M910.017 379.4702 L897.0426 378.6547 L901.5085 382.4037 L900.3022 388.1086 Z" clip-path="url(#clipPath2)" stroke="none"/>
      <rect x="739.3784" y="423.701" clip-path="url(#clipPath2)" fill="rgb(204,255,255)" width="30.8066" height="18.584" stroke="none"/>
      <rect stroke-linecap="square" x="739.3784" y="423.701" clip-path="url(#clipPath2)" fill="none" width="30.8066" height="18.584" stroke-miterlimit="1.6"/>
      <text x="741.3784" xml:space="preserve" y="437.7655" clip-path="url(#clipPath2)" font-family="'Verdana'" stroke="none">b8:c</text>
    </g>
  </g>
</svg>
