<?xml version="1.0" encoding="UTF-8"?><svg xmlns="http://www.w3.org/2000/svg" xmlns:xlink="http://www.w3.org/1999/xlink" fill-opacity="1" color-rendering="auto" color-interpolation="auto" text-rendering="auto" stroke="black" stroke-linecap="square" width="978" stroke-miterlimit="10" shape-rendering="auto" stroke-opacity="1" fill="black" stroke-dasharray="none" font-weight="normal" stroke-width="1" height="555" font-family="'Dialog'" font-style="normal" stroke-linejoin="miter" font-size="12px" stroke-dashoffset="0" image-rendering="auto">
  <!--Generated by ySVG 2.5-->
  <defs id="genericDefs"/>
  <g>
    <defs id="defs1">
      <clipPath clipPathUnits="userSpaceOnUse" id="clipPath1">
        <path d="M0 0 L978 0 L978 555 L0 555 L0 0 Z"/>
      </clipPath>
      <clipPath clipPathUnits="userSpaceOnUse" id="clipPath2">
        <path d="M346 102 L1324 102 L1324 657 L346 657 L346 102 Z"/>
      </clipPath>
    </defs>
    <g fill="white" text-rendering="geometricPrecision" shape-rendering="geometricPrecision" transform="translate(-346,-102)" stroke="white">
      <rect x="346" width="978" height="555" y="102" clip-path="url(#clipPath2)" stroke="none"/>
    </g>
    <g text-rendering="geometricPrecision" stroke-miterlimit="1.45" shape-rendering="geometricPrecision" font-family="'Trebuchet MS'" transform="matrix(1,0,0,1,-346,-102)" stroke-linecap="butt">
      <text x="603.4185" xml:space="preserve" y="633.5008" clip-path="url(#clipPath2)" stroke="none">Alice: 10, Bob: 0, Charlie: 0</text>
      <rect x="589.4926" y="616.568" clip-path="url(#clipPath2)" fill="none" width="177.7815" rx="4" ry="4" height="25.264"/>
    </g>
    <g fill="rgb(255,255,204)" text-rendering="geometricPrecision" shape-rendering="geometricPrecision" transform="matrix(1,0,0,1,-346,-102)" stroke="rgb(255,255,204)">
      <rect x="361.5941" y="433.824" clip-path="url(#clipPath2)" width="177.7815" rx="4" ry="4" height="25.264" stroke="none"/>
    </g>
    <g text-rendering="geometricPrecision" stroke-miterlimit="1.45" shape-rendering="geometricPrecision" font-family="'Trebuchet MS'" transform="matrix(1,0,0,1,-346,-102)" stroke-linecap="butt">
      <text x="378.6665" xml:space="preserve" y="450.7568" clip-path="url(#clipPath2)" stroke="none">Alice: 4, Bob: 6, Charlie: 0</text>
      <rect x="361.5941" y="433.824" clip-path="url(#clipPath2)" fill="none" width="177.7815" rx="4" ry="4" height="25.264"/>
      <text x="606.565" xml:space="preserve" y="450.7568" clip-path="url(#clipPath2)" stroke="none">Alice: 3, Bob: 0, Charlie: 7</text>
      <rect x="589.4926" y="433.824" clip-path="url(#clipPath2)" fill="none" width="177.7815" rx="4" ry="4" height="25.264"/>
    </g>
    <g fill="rgb(255,255,204)" text-rendering="geometricPrecision" shape-rendering="geometricPrecision" transform="matrix(1,0,0,1,-346,-102)" stroke="rgb(255,255,204)">
      <rect x="911.9911" y="433.824" clip-path="url(#clipPath2)" width="177.7815" rx="4" ry="4" height="25.264" stroke="none"/>
    </g>
    <g text-rendering="geometricPrecision" stroke-miterlimit="1.45" shape-rendering="geometricPrecision" font-family="'Trebuchet MS'" transform="matrix(1,0,0,1,-346,-102)" stroke-linecap="butt">
      <text x="929.0635" xml:space="preserve" y="450.7568" clip-path="url(#clipPath2)" stroke="none">Alice: 6, Bob: 0, Charlie: 4</text>
      <rect x="911.9911" y="433.824" clip-path="url(#clipPath2)" fill="none" width="177.7815" rx="4" ry="4" height="25.264"/>
      <text x="606.565" xml:space="preserve" y="304.3568" clip-path="url(#clipPath2)" stroke="none">Alice: 3, Bob: 4, Charlie: 3</text>
      <rect x="589.4926" y="287.424" clip-path="url(#clipPath2)" fill="none" width="177.7815" rx="4" ry="4" height="25.264"/>
    </g>
    <g fill="rgb(230,255,230)" text-rendering="geometricPrecision" shape-rendering="geometricPrecision" transform="matrix(1,0,0,1,-346,-102)" stroke="rgb(230,255,230)">
      <rect x="898.8741" y="287.424" clip-path="url(#clipPath2)" width="177.7815" rx="4" ry="4" height="25.264" stroke="none"/>
    </g>
    <g text-rendering="geometricPrecision" stroke-miterlimit="1.45" shape-rendering="geometricPrecision" font-family="'Trebuchet MS'" transform="matrix(1,0,0,1,-346,-102)" stroke-linecap="butt">
      <text x="915.9465" xml:space="preserve" y="304.3568" clip-path="url(#clipPath2)" stroke="none">Alice: 2, Bob: 0, Charlie: 8</text>
      <rect x="898.8741" y="287.424" clip-path="url(#clipPath2)" fill="none" width="177.7815" rx="4" ry="4" height="25.264"/>
    </g>
    <g fill="rgb(230,255,230)" text-rendering="geometricPrecision" shape-rendering="geometricPrecision" transform="matrix(1,0,0,1,-346,-102)" stroke="rgb(230,255,230)">
      <rect x="1131.1911" y="287.424" clip-path="url(#clipPath2)" width="177.7815" rx="4" ry="4" height="25.264" stroke="none"/>
    </g>
    <g text-rendering="geometricPrecision" stroke-miterlimit="1.45" shape-rendering="geometricPrecision" font-family="'Trebuchet MS'" transform="matrix(1,0,0,1,-346,-102)" stroke-linecap="butt">
      <text x="1148.2635" xml:space="preserve" y="304.3568" clip-path="url(#clipPath2)" stroke="none">Alice: 6, Bob: 4, Charlie: 0</text>
      <rect x="1131.1911" y="287.424" clip-path="url(#clipPath2)" fill="none" width="177.7815" rx="4" ry="4" height="25.264"/>
      <text x="599.2576" xml:space="preserve" y="134.7568" clip-path="url(#clipPath2)" stroke="none">Alice: 0, Bob: 6, Charlie: 4</text>
      <rect x="582.1852" y="117.824" clip-path="url(#clipPath2)" fill="none" width="177.7815" rx="4" ry="4" height="25.264"/>
      <text x="1057.8635" xml:space="preserve" y="134.7568" clip-path="url(#clipPath2)" stroke="none">Alice: 2, Bob: 4, Charlie: 4</text>
      <rect x="1040.7911" y="117.824" clip-path="url(#clipPath2)" fill="none" width="177.7815" rx="4" ry="4" height="25.264"/>
      <path fill="none" d="M662.6096 616.5516 L472.4956 464.1057" clip-path="url(#clipPath2)"/>
      <path d="M466.2544 459.101 L472.4883 470.5089 L473.2758 464.7313 L478.7442 462.7073 Z" clip-path="url(#clipPath2)" stroke="none"/>
      <rect x="558.8306" y="528.536" clip-path="url(#clipPath2)" fill="white" width="11.207" height="18.584" stroke="none"/>
      <rect stroke-linecap="square" x="558.8306" y="528.536" clip-path="url(#clipPath2)" fill="none" width="11.207" height="18.584" stroke-miterlimit="1.6"/>
      <text x="560.8306" xml:space="preserve" y="542.6005" clip-path="url(#clipPath2)" font-family="'Verdana'" stroke="none">a</text>
      <path fill="none" d="M678.3834 616.5739 L678.3834 467.1235" clip-path="url(#clipPath2)"/>
      <path d="M678.3834 459.1235 L673.3834 471.1235 L678.3834 468.1235 L683.3834 471.1235 Z" clip-path="url(#clipPath2)" stroke="none"/>
      <rect x="672.6451" y="528.536" clip-path="url(#clipPath2)" fill="white" width="11.4766" height="18.584" stroke="none"/>
      <rect stroke-linecap="square" x="672.6451" y="528.536" clip-path="url(#clipPath2)" fill="none" width="11.4766" height="18.584" stroke-miterlimit="1.6"/>
      <text x="674.6451" xml:space="preserve" y="542.6005" clip-path="url(#clipPath2)" font-family="'Verdana'" stroke="none">b</text>
      <path fill="none" d="M700.7047 616.5516 L971.6062 463.0451" clip-path="url(#clipPath2)"/>
      <path d="M978.5664 459.1011 L965.6611 460.6669 L970.7361 463.5381 L970.5911 469.3672 Z" clip-path="url(#clipPath2)" stroke="none"/>
      <rect x="834.5066" y="528.536" clip-path="url(#clipPath2)" fill="white" width="10.252" height="18.584" stroke="none"/>
      <rect stroke-linecap="square" x="834.5066" y="528.536" clip-path="url(#clipPath2)" fill="none" width="10.252" height="18.584" stroke-miterlimit="1.6"/>
      <text x="836.5067" xml:space="preserve" y="542.6005" clip-path="url(#clipPath2)" font-family="'Verdana'" stroke="none">c</text>
      <path fill="none" d="M678.3834 433.839 L678.3834 320.6961" clip-path="url(#clipPath2)"/>
      <path d="M678.3834 312.6961 L673.3834 324.6961 L678.3834 321.6961 L683.3834 324.6961 Z" clip-path="url(#clipPath2)" stroke="none"/>
      <rect x="672.6451" y="363.964" clip-path="url(#clipPath2)" fill="white" width="11.4766" height="18.584" stroke="none"/>
      <rect stroke-linecap="square" x="672.6451" y="363.964" clip-path="url(#clipPath2)" fill="none" width="11.4766" height="18.584" stroke-miterlimit="1.6"/>
      <text x="674.6451" xml:space="preserve" y="378.0285" clip-path="url(#clipPath2)" font-family="'Verdana'" stroke="none">d</text>
      <path fill="none" d="M999.7514 433.839 L989.6113 320.6642" clip-path="url(#clipPath2)"/>
      <path d="M988.8973 312.6961 L984.9882 325.0945 L989.7005 321.6602 L994.9483 324.2021 Z" clip-path="url(#clipPath2)" stroke="none"/>
      <rect x="989.1974" y="363.964" clip-path="url(#clipPath2)" fill="white" width="10.252" height="18.584" stroke="none"/>
      <rect stroke-linecap="square" x="989.1974" y="363.964" clip-path="url(#clipPath2)" fill="none" width="10.252" height="18.584" stroke-miterlimit="1.6"/>
      <text x="991.1974" xml:space="preserve" y="378.0285" clip-path="url(#clipPath2)" font-family="'Verdana'" stroke="none">c</text>
      <path fill="none" d="M1019.7996 433.8211 L1194.5305 317.1213" clip-path="url(#clipPath2)"/>
      <path d="M1201.1831 312.6781 L1188.4271 315.1851 L1193.6989 317.6768 L1193.9812 323.5009 Z" clip-path="url(#clipPath2)" stroke="none"/>
      <rect x="1104.7436" y="363.964" clip-path="url(#clipPath2)" fill="white" width="11.4766" height="18.584" stroke="none"/>
      <rect stroke-linecap="square" x="1104.7436" y="363.964" clip-path="url(#clipPath2)" fill="none" width="11.4766" height="18.584" stroke-miterlimit="1.6"/>
      <text x="1106.7435" xml:space="preserve" y="378.0285" clip-path="url(#clipPath2)" font-family="'Verdana'" stroke="none">d</text>
    </g>
    <g stroke-linecap="round" transform="matrix(1,0,0,1,-346,-102)" stroke-dashoffset="2" text-rendering="geometricPrecision" shape-rendering="geometricPrecision" stroke-dasharray="0,8" stroke-width="2" stroke-miterlimit="1.45">
      <path fill="none" d="M459.2902 433.8422 L657.1085 150.4645" clip-path="url(#clipPath2)"/>
      <path d="M662.2601 143.0847 L649.9203 150.9346 L656.4645 151.387 L659.1451 157.3741 Z" clip-path="url(#clipPath2)" stroke="none"/>
      <rect x="555.6544" y="279.164" clip-path="url(#clipPath2)" fill="white" width="10.252" height="18.584" stroke="none"/>
    </g>
    <g text-rendering="geometricPrecision" stroke-miterlimit="1.6" shape-rendering="geometricPrecision" transform="matrix(1,0,0,1,-346,-102)">
      <rect fill="none" x="555.6544" width="10.252" height="18.584" y="279.164" clip-path="url(#clipPath2)"/>
      <text stroke-linecap="butt" x="557.6544" y="293.2285" clip-path="url(#clipPath2)" font-family="'Verdana'" stroke="none" stroke-miterlimit="1.45" xml:space="preserve">c</text>
    </g>
    <g stroke-linecap="round" transform="matrix(1,0,0,1,-346,-102)" stroke-dashoffset="2" text-rendering="geometricPrecision" shape-rendering="geometricPrecision" stroke-dasharray="0,8" stroke-width="2" stroke-miterlimit="1.45">
      <path fill="none" d="M987.6969 433.8229 L690.7734 149.3289" clip-path="url(#clipPath2)"/>
      <path d="M684.2749 143.1025 L690.1312 156.5038 L691.5858 150.1073 L697.9142 148.3806 Z" clip-path="url(#clipPath2)" stroke="none"/>
      <rect x="830.3754" y="279.164" clip-path="url(#clipPath2)" fill="white" width="11.207" height="18.584" stroke="none"/>
    </g>
    <g text-rendering="geometricPrecision" stroke-miterlimit="1.6" shape-rendering="geometricPrecision" transform="matrix(1,0,0,1,-346,-102)">
      <rect fill="none" x="830.3754" width="11.207" height="18.584" y="279.164" clip-path="url(#clipPath2)"/>
      <text stroke-linecap="butt" x="832.3754" y="293.2285" clip-path="url(#clipPath2)" font-family="'Verdana'" stroke="none" stroke-miterlimit="1.45" xml:space="preserve">a</text>
    </g>
    <g stroke-linecap="round" transform="matrix(1,0,0,1,-346,-102)" stroke-dashoffset="2" text-rendering="geometricPrecision" shape-rendering="geometricPrecision" stroke-dasharray="0,8" stroke-width="2" stroke-miterlimit="1.45">
      <path fill="none" d="M998.3497 287.4064 L1113.3573 149.9649" clip-path="url(#clipPath2)"/>
      <path d="M1119.1329 143.0626 L1106.1555 149.8063 L1112.6354 150.8277 L1114.7834 157.0258 Z" clip-path="url(#clipPath2)" stroke="none"/>
      <rect x="1052.9851" y="205.964" clip-path="url(#clipPath2)" fill="white" width="11.4766" height="18.584" stroke="none"/>
    </g>
    <g text-rendering="geometricPrecision" stroke-miterlimit="1.6" shape-rendering="geometricPrecision" transform="matrix(1,0,0,1,-346,-102)">
      <rect fill="none" x="1052.9851" width="11.4766" height="18.584" y="205.964" clip-path="url(#clipPath2)"/>
      <text stroke-linecap="butt" x="1054.9851" y="220.0285" clip-path="url(#clipPath2)" font-family="'Verdana'" stroke="none" stroke-miterlimit="1.45" xml:space="preserve">d</text>
    </g>
    <g stroke-linecap="round" transform="matrix(1,0,0,1,-346,-102)" stroke-dashoffset="2" text-rendering="geometricPrecision" shape-rendering="geometricPrecision" stroke-dasharray="0,8" stroke-width="2" stroke-miterlimit="1.45">
      <path fill="none" d="M1213.3505 287.4271 L1140.6356 151.0065" clip-path="url(#clipPath2)"/>
      <path d="M1136.4023 143.0642 L1137.7883 157.6234 L1141.1648 151.9993 L1147.7162 152.3318 Z" clip-path="url(#clipPath2)" stroke="none"/>
      <rect x="1169.7559" y="205.964" clip-path="url(#clipPath2)" fill="white" width="10.252" height="18.584" stroke="none"/>
    </g>
    <g text-rendering="geometricPrecision" stroke-miterlimit="1.6" shape-rendering="geometricPrecision" transform="matrix(1,0,0,1,-346,-102)">
      <rect fill="none" x="1169.7559" width="10.252" height="18.584" y="205.964" clip-path="url(#clipPath2)"/>
      <text stroke-linecap="butt" x="1171.7559" y="220.0285" clip-path="url(#clipPath2)" font-family="'Verdana'" stroke="none" stroke-miterlimit="1.45" xml:space="preserve">c</text>
    </g>
  </g>
</svg>
