<?xml version="1.0" encoding="UTF-8"?><svg xmlns="http://www.w3.org/2000/svg" xmlns:xlink="http://www.w3.org/1999/xlink" fill-opacity="1" color-rendering="auto" color-interpolation="auto" text-rendering="auto" stroke="black" stroke-linecap="square" width="651" stroke-miterlimit="10" shape-rendering="auto" stroke-opacity="1" fill="black" stroke-dasharray="none" font-weight="normal" stroke-width="1" height="412" font-family="'Dialog'" font-style="normal" stroke-linejoin="miter" font-size="12px" stroke-dashoffset="0" image-rendering="auto">
  <!--Generated by ySVG 2.5-->
  <defs id="genericDefs"/>
  <g>
    <defs id="defs1">
      <clipPath clipPathUnits="userSpaceOnUse" id="clipPath1">
        <path d="M0 0 L651 0 L651 412 L0 412 L0 0 Z"/>
      </clipPath>
      <clipPath clipPathUnits="userSpaceOnUse" id="clipPath2">
        <path d="M328 220 L979 220 L979 632 L328 632 L328 220 Z"/>
      </clipPath>
    </defs>
    <g fill="white" text-rendering="geometricPrecision" shape-rendering="geometricPrecision" transform="translate(-328,-220)" stroke="white">
      <rect x="328" width="651" height="412" y="220" clip-path="url(#clipPath2)" stroke="none"/>
    </g>
    <g text-rendering="geometricPrecision" stroke-miterlimit="1.45" shape-rendering="geometricPrecision" font-family="'Trebuchet MS'" transform="matrix(1,0,0,1,-328,-220)" stroke-linecap="butt">
      <text x="570.0215" xml:space="preserve" y="607.7888" clip-path="url(#clipPath2)" stroke="none">Alice: 10, Bob: 0, Charlie: 0</text>
      <rect x="563.6956" y="590.856" clip-path="url(#clipPath2)" fill="none" width="162.5815" rx="4" ry="4" height="25.264"/>
    </g>
    <g fill="rgb(255,255,204)" text-rendering="geometricPrecision" shape-rendering="geometricPrecision" transform="matrix(1,0,0,1,-328,-220)" stroke="rgb(255,255,204)">
      <rect x="535.4126" y="449.648" clip-path="url(#clipPath2)" width="162.5815" rx="4" ry="4" height="25.264" stroke="none"/>
    </g>
    <g text-rendering="geometricPrecision" stroke-miterlimit="1.45" shape-rendering="geometricPrecision" font-family="'Trebuchet MS'" transform="matrix(1,0,0,1,-328,-220)" stroke-linecap="butt">
      <text x="544.885" xml:space="preserve" y="466.5808" clip-path="url(#clipPath2)" stroke="none">Alice: 4, Bob: 6, Charlie: 0</text>
      <rect x="535.4126" y="449.648" clip-path="url(#clipPath2)" fill="none" width="162.5815" rx="4" ry="4" height="25.264"/>
      <text x="425.088" xml:space="preserve" y="515.1848" clip-path="url(#clipPath2)" stroke="none">Alice: 3, Bob: 0, Charlie: 7</text>
      <rect x="413.6156" y="498.252" clip-path="url(#clipPath2)" fill="none" width="166.5815" rx="4" ry="4" height="25.264"/>
    </g>
    <g fill="rgb(255,255,204)" text-rendering="geometricPrecision" shape-rendering="geometricPrecision" transform="matrix(1,0,0,1,-328,-220)" stroke="rgb(255,255,204)">
      <rect x="686.3756" y="405.648" clip-path="url(#clipPath2)" width="162.5815" rx="4" ry="4" height="25.264" stroke="none"/>
    </g>
    <g text-rendering="geometricPrecision" stroke-miterlimit="1.45" shape-rendering="geometricPrecision" font-family="'Trebuchet MS'" transform="matrix(1,0,0,1,-328,-220)" stroke-linecap="butt">
      <text x="695.848" xml:space="preserve" y="422.5808" clip-path="url(#clipPath2)" stroke="none">Alice: 6, Bob: 0, Charlie: 4</text>
      <rect x="686.3756" y="405.648" clip-path="url(#clipPath2)" fill="none" width="162.5815" rx="4" ry="4" height="25.264"/>
      <text x="354.6879" xml:space="preserve" y="441.3168" clip-path="url(#clipPath2)" stroke="none">Alice: 3, Bob: 4, Charlie: 3</text>
      <rect x="343.2156" y="424.384" clip-path="url(#clipPath2)" fill="none" width="166.5815" rx="4" ry="4" height="25.264"/>
    </g>
    <g fill="rgb(230,255,230)" text-rendering="geometricPrecision" shape-rendering="geometricPrecision" transform="matrix(1,0,0,1,-328,-220)" stroke="rgb(230,255,230)">
      <rect x="668.4126" y="249.984" clip-path="url(#clipPath2)" width="162.5815" rx="4" ry="4" height="25.264" stroke="none"/>
    </g>
    <g text-rendering="geometricPrecision" stroke-miterlimit="1.45" shape-rendering="geometricPrecision" font-family="'Trebuchet MS'" transform="matrix(1,0,0,1,-328,-220)" stroke-linecap="butt">
      <text x="677.885" xml:space="preserve" y="266.9168" clip-path="url(#clipPath2)" stroke="none">Alice: 2, Bob: 0, Charlie: 8</text>
      <rect x="668.4126" y="249.984" clip-path="url(#clipPath2)" fill="none" width="162.5815" rx="4" ry="4" height="25.264"/>
    </g>
    <g fill="rgb(230,255,230)" text-rendering="geometricPrecision" shape-rendering="geometricPrecision" transform="matrix(1,0,0,1,-328,-220)" stroke="rgb(230,255,230)">
      <rect x="800.5941" y="315.648" clip-path="url(#clipPath2)" width="162.5815" rx="4" ry="4" height="25.264" stroke="none"/>
    </g>
    <g text-rendering="geometricPrecision" stroke-miterlimit="1.45" shape-rendering="geometricPrecision" font-family="'Trebuchet MS'" transform="matrix(1,0,0,1,-328,-220)" stroke-linecap="butt">
      <text x="810.0665" xml:space="preserve" y="332.5808" clip-path="url(#clipPath2)" stroke="none">Alice: 6, Bob: 4, Charlie: 0</text>
      <rect x="800.5941" y="315.648" clip-path="url(#clipPath2)" fill="none" width="162.5815" rx="4" ry="4" height="25.264"/>
      <text x="446.7415" xml:space="preserve" y="252.5808" clip-path="url(#clipPath2)" stroke="none">Alice: 0, Bob: 10, Charlie: 0</text>
      <rect x="438.4156" y="235.648" clip-path="url(#clipPath2)" fill="none" width="166.5815" rx="4" ry="4" height="25.264"/>
      <text x="772.6771" font-size="14px" y="554.1616" clip-path="url(#clipPath2)" stroke="none" font-weight="bold" xml:space="preserve">Global state "Zero"</text>
      <path fill="none" d="M642.4521 590.8358 L620.8079 482.7726" clip-path="url(#clipPath2)"/>
      <path d="M619.2368 474.9284 L616.6908 487.6767 L621.0043 483.7532 L626.496 485.7128 Z" clip-path="url(#clipPath2)" stroke="none"/>
      <rect x="625.2413" y="523.592" clip-path="url(#clipPath2)" fill="white" width="11.207" height="18.584" stroke="none"/>
      <rect stroke-linecap="square" x="625.2413" y="523.592" clip-path="url(#clipPath2)" fill="none" width="11.207" height="18.584" stroke-miterlimit="1.6"/>
      <text x="627.2413" xml:space="preserve" y="537.6564" clip-path="url(#clipPath2)" font-family="'Verdana'" stroke="none">a</text>
      <path fill="none" d="M624.7772 590.8499 L523.8875 527.7571" clip-path="url(#clipPath2)"/>
      <path d="M517.1046 523.5153 L524.6278 534.1173 L524.7354 528.2873 L529.9301 525.6387 Z" clip-path="url(#clipPath2)" stroke="none"/>
      <rect x="565.208" y="547.894" clip-path="url(#clipPath2)" fill="white" width="11.4766" height="18.584" stroke="none"/>
      <rect stroke-linecap="square" x="565.208" y="547.894" clip-path="url(#clipPath2)" fill="none" width="11.4766" height="18.584" stroke-miterlimit="1.6"/>
      <text x="567.208" xml:space="preserve" y="561.9584" clip-path="url(#clipPath2)" font-family="'Verdana'" stroke="none">b</text>
      <path fill="none" d="M653.3577 590.8499 L754.8902 437.5679" clip-path="url(#clipPath2)"/>
      <path d="M759.308 430.8983 L748.5128 438.1415 L754.338 438.4016 L756.8497 443.6638 Z" clip-path="url(#clipPath2)" stroke="none"/>
      <rect x="701.2003" y="501.592" clip-path="url(#clipPath2)" fill="white" width="10.252" height="18.584" stroke="none"/>
      <rect stroke-linecap="square" x="701.2003" y="501.592" clip-path="url(#clipPath2)" fill="none" width="10.252" height="18.584" stroke-miterlimit="1.6"/>
      <text x="703.2003" xml:space="preserve" y="515.6564" clip-path="url(#clipPath2)" font-family="'Verdana'" stroke="none">c</text>
      <path fill="none" d="M484.8407 498.224 L444.0741 455.4492" clip-path="url(#clipPath2)"/>
      <path d="M438.5549 449.6581 L443.2143 461.7944 L444.764 456.1732 L450.4532 454.8953 Z" clip-path="url(#clipPath2)" stroke="none"/>
      <rect x="455.968" y="464.658" clip-path="url(#clipPath2)" fill="white" width="11.4766" height="18.584" stroke="none"/>
      <rect stroke-linecap="square" x="455.968" y="464.658" clip-path="url(#clipPath2)" fill="none" width="11.4766" height="18.584" stroke-miterlimit="1.6"/>
      <text x="457.968" xml:space="preserve" y="478.7225" clip-path="url(#clipPath2)" font-family="'Verdana'" stroke="none">d</text>
      <path fill="none" d="M766.2059 405.6247 L752.0749 283.1673" clip-path="url(#clipPath2)"/>
      <path d="M751.1578 275.22 L747.5664 287.7141 L752.1895 284.1607 L757.5005 286.5677 Z" clip-path="url(#clipPath2)" stroke="none"/>
      <rect x="753.5588" y="331.156" clip-path="url(#clipPath2)" fill="white" width="10.252" height="18.584" stroke="none"/>
      <rect stroke-linecap="square" x="753.5588" y="331.156" clip-path="url(#clipPath2)" fill="none" width="10.252" height="18.584" stroke-miterlimit="1.6"/>
      <text x="755.5588" xml:space="preserve" y="345.2205" clip-path="url(#clipPath2)" font-family="'Verdana'" stroke="none">c</text>
      <path fill="none" d="M783.7004 405.6457 L859.5647 345.8675" clip-path="url(#clipPath2)"/>
      <path d="M865.8483 340.9161 L853.3282 344.4159 L858.7792 346.4864 L859.5175 352.2704 Z" clip-path="url(#clipPath2)" stroke="none"/>
      <rect x="819.0373" y="363.988" clip-path="url(#clipPath2)" fill="white" width="11.4766" height="18.584" stroke="none"/>
      <rect stroke-linecap="square" x="819.0373" y="363.988" clip-path="url(#clipPath2)" fill="none" width="11.4766" height="18.584" stroke-miterlimit="1.6"/>
      <text x="821.0373" xml:space="preserve" y="378.0525" clip-path="url(#clipPath2)" font-family="'Verdana'" stroke="none">d</text>
      <path fill="none" d="M603.2076 449.6476 L564.455 413.374 L554.4357 403.1162 L545.7524 392.35 L538.405 381.0752 L532.3934 369.292 L527.7178 357.0002 L524.3781 344.2 L522.3743 330.8912 L521.7063 317.074 L521.7063 268.9437" clip-path="url(#clipPath2)"/>
      <path d="M521.7063 260.9437 L516.7063 272.9437 L521.7063 269.9437 L526.7063 272.9437 Z" clip-path="url(#clipPath2)" stroke="none"/>
      <rect x="516.5803" y="340.545" clip-path="url(#clipPath2)" fill="white" width="10.252" height="18.584" stroke="none"/>
      <rect stroke-linecap="square" x="516.5803" y="340.545" clip-path="url(#clipPath2)" fill="none" width="10.252" height="18.584" stroke-miterlimit="1.6"/>
      <text x="518.5803" xml:space="preserve" y="354.6095" clip-path="url(#clipPath2)" font-family="'Verdana'" stroke="none">c</text>
      <path fill="none" stroke-dasharray="18,6" d="M819.8671 561.7683 L812.3206 569.0628 L807.8232 572.9781 L802.7616 576.5753 L797.1356 579.8546 L790.9452 582.8157 L776.8713 587.7839 L760.54 591.48 L736.0875 595.7655" stroke-width="3" clip-path="url(#clipPath2)"/>
      <path stroke-dasharray="18,6" d="M726.2376 597.4918 L742.0913 601.0585 L737.3187 595.5497 L739.9335 588.7462 Z" stroke-width="3" clip-path="url(#clipPath2)" stroke="none"/>
    </g>
  </g>
</svg>
