<?xml version="1.0" encoding="UTF-8"?><svg xmlns="http://www.w3.org/2000/svg" xmlns:xlink="http://www.w3.org/1999/xlink" fill-opacity="1" color-rendering="auto" color-interpolation="auto" text-rendering="auto" stroke="black" stroke-linecap="square" width="644" stroke-miterlimit="10" shape-rendering="auto" stroke-opacity="1" fill="black" stroke-dasharray="none" font-weight="normal" stroke-width="1" height="386" font-family="'Dialog'" font-style="normal" stroke-linejoin="miter" font-size="12px" stroke-dashoffset="0" image-rendering="auto">
  <!--Generated by ySVG 2.5-->
  <defs id="genericDefs"/>
  <g>
    <defs id="defs1">
      <clipPath clipPathUnits="userSpaceOnUse" id="clipPath1">
        <path d="M0 0 L644 0 L644 386 L0 386 L0 0 Z"/>
      </clipPath>
      <clipPath clipPathUnits="userSpaceOnUse" id="clipPath2">
        <path d="M411 246 L1055 246 L1055 632 L411 632 L411 246 Z"/>
      </clipPath>
    </defs>
    <g fill="white" text-rendering="geometricPrecision" shape-rendering="geometricPrecision" transform="translate(-411,-246)" stroke="white">
      <rect x="411" width="644" height="386" y="246" clip-path="url(#clipPath2)" stroke="none"/>
    </g>
    <g text-rendering="geometricPrecision" stroke-miterlimit="1.45" shape-rendering="geometricPrecision" font-family="'Trebuchet MS'" transform="matrix(1,0,0,1,-411,-246)" stroke-linecap="butt">
      <text x="577.6215" xml:space="preserve" y="607.7888" clip-path="url(#clipPath2)" stroke="none">Alice: 10, Bob: 0, Charlie: 0</text>
      <rect x="563.6956" y="590.856" clip-path="url(#clipPath2)" fill="none" width="177.7815" rx="4" ry="4" height="25.264"/>
    </g>
    <g fill="rgb(255,255,204)" text-rendering="geometricPrecision" shape-rendering="geometricPrecision" transform="matrix(1,0,0,1,-411,-246)" stroke="rgb(255,255,204)">
      <rect x="426.197" y="472.912" clip-path="url(#clipPath2)" width="177.7815" rx="4" ry="4" height="25.264" stroke="none"/>
    </g>
    <g text-rendering="geometricPrecision" stroke-miterlimit="1.45" shape-rendering="geometricPrecision" font-family="'Trebuchet MS'" transform="matrix(1,0,0,1,-411,-246)" stroke-linecap="butt">
      <text x="443.2694" xml:space="preserve" y="489.8448" clip-path="url(#clipPath2)" stroke="none">Alice: 4, Bob: 6, Charlie: 0</text>
      <rect x="426.197" y="472.912" clip-path="url(#clipPath2)" fill="none" width="177.7815" rx="4" ry="4" height="25.264"/>
      <text x="580.7679" xml:space="preserve" y="425.0448" clip-path="url(#clipPath2)" stroke="none">Alice: 3, Bob: 0, Charlie: 7</text>
      <rect x="563.6956" y="408.112" clip-path="url(#clipPath2)" fill="none" width="177.7815" rx="4" ry="4" height="25.264"/>
    </g>
    <g fill="rgb(255,255,204)" text-rendering="geometricPrecision" shape-rendering="geometricPrecision" transform="matrix(1,0,0,1,-411,-246)" stroke="rgb(255,255,204)">
      <rect x="717.9941" y="480.912" clip-path="url(#clipPath2)" width="177.7815" rx="4" ry="4" height="25.264" stroke="none"/>
    </g>
    <g text-rendering="geometricPrecision" stroke-miterlimit="1.45" shape-rendering="geometricPrecision" font-family="'Trebuchet MS'" transform="matrix(1,0,0,1,-411,-246)" stroke-linecap="butt">
      <text x="735.0665" xml:space="preserve" y="497.8448" clip-path="url(#clipPath2)" stroke="none">Alice: 6, Bob: 0, Charlie: 4</text>
      <rect x="717.9941" y="480.912" clip-path="url(#clipPath2)" fill="none" width="177.7815" rx="4" ry="4" height="25.264"/>
      <text x="580.7679" xml:space="preserve" y="332.2448" clip-path="url(#clipPath2)" stroke="none">Alice: 3, Bob: 4, Charlie: 3</text>
      <rect x="563.6956" y="315.312" clip-path="url(#clipPath2)" fill="none" width="177.7815" rx="4" ry="4" height="25.264"/>
    </g>
    <g fill="rgb(230,255,230)" text-rendering="geometricPrecision" shape-rendering="geometricPrecision" transform="matrix(1,0,0,1,-411,-246)" stroke="rgb(230,255,230)">
      <rect x="727.077" y="261.712" clip-path="url(#clipPath2)" width="177.7815" rx="4" ry="4" height="25.264" stroke="none"/>
    </g>
    <g text-rendering="geometricPrecision" stroke-miterlimit="1.45" shape-rendering="geometricPrecision" font-family="'Trebuchet MS'" transform="matrix(1,0,0,1,-411,-246)" stroke-linecap="butt">
      <text x="744.1494" xml:space="preserve" y="278.6448" clip-path="url(#clipPath2)" stroke="none">Alice: 2, Bob: 0, Charlie: 8</text>
      <rect x="727.077" y="261.712" clip-path="url(#clipPath2)" fill="none" width="177.7815" rx="4" ry="4" height="25.264"/>
    </g>
    <g fill="rgb(230,255,230)" text-rendering="geometricPrecision" shape-rendering="geometricPrecision" transform="matrix(1,0,0,1,-411,-246)" stroke="rgb(230,255,230)">
      <rect x="862.1941" y="364.912" clip-path="url(#clipPath2)" width="177.7815" rx="4" ry="4" height="25.264" stroke="none"/>
    </g>
    <g text-rendering="geometricPrecision" stroke-miterlimit="1.45" shape-rendering="geometricPrecision" font-family="'Trebuchet MS'" transform="matrix(1,0,0,1,-411,-246)" stroke-linecap="butt">
      <text x="879.2665" xml:space="preserve" y="381.8448" clip-path="url(#clipPath2)" stroke="none">Alice: 6, Bob: 4, Charlie: 0</text>
      <rect x="862.1941" y="364.912" clip-path="url(#clipPath2)" fill="none" width="177.7815" rx="4" ry="4" height="25.264"/>
      <path fill="none" d="M637.8495 590.847 L535.8757 503.3756" clip-path="url(#clipPath2)"/>
      <path d="M529.8036 498.167 L535.6564 509.7749 L536.6347 504.0266 L542.1671 502.1848 Z" clip-path="url(#clipPath2)" stroke="none"/>
      <rect x="578.2335" y="535.224" clip-path="url(#clipPath2)" fill="white" width="11.207" height="18.584" stroke="none"/>
      <rect stroke-linecap="square" x="578.2335" y="535.224" clip-path="url(#clipPath2)" fill="none" width="11.207" height="18.584" stroke-miterlimit="1.6"/>
      <text x="580.2335" xml:space="preserve" y="549.2885" clip-path="url(#clipPath2)" font-family="'Verdana'" stroke="none">a</text>
      <path fill="none" d="M652.5863 590.8619 L652.5863 441.4115" clip-path="url(#clipPath2)"/>
      <path d="M652.5863 433.4115 L647.5863 445.4115 L652.5863 442.4115 L657.5863 445.4115 Z" clip-path="url(#clipPath2)" stroke="none"/>
      <rect x="646.848" y="502.824" clip-path="url(#clipPath2)" fill="white" width="11.4766" height="18.584" stroke="none"/>
      <rect stroke-linecap="square" x="646.848" y="502.824" clip-path="url(#clipPath2)" fill="none" width="11.4766" height="18.584" stroke-miterlimit="1.6"/>
      <text x="648.848" xml:space="preserve" y="516.8885" clip-path="url(#clipPath2)" font-family="'Verdana'" stroke="none">b</text>
      <path fill="none" d="M670.3291 590.8455 L782.6667 510.8004" clip-path="url(#clipPath2)"/>
      <path d="M789.1819 506.1581 L776.5076 509.0496 L781.8523 511.3807 L782.3105 517.1936 Z" clip-path="url(#clipPath2)" stroke="none"/>
      <rect x="724.6096" y="539.224" clip-path="url(#clipPath2)" fill="white" width="10.252" height="18.584" stroke="none"/>
      <rect stroke-linecap="square" x="724.6096" y="539.224" clip-path="url(#clipPath2)" fill="none" width="10.252" height="18.584" stroke-miterlimit="1.6"/>
      <text x="726.6096" xml:space="preserve" y="553.2885" clip-path="url(#clipPath2)" font-family="'Verdana'" stroke="none">c</text>
      <path fill="none" d="M652.5863 408.1018 L652.5863 348.5861" clip-path="url(#clipPath2)"/>
      <path d="M652.5863 340.5861 L647.5863 352.5861 L652.5863 349.5861 L657.5863 352.5861 Z" clip-path="url(#clipPath2)" stroke="none"/>
      <rect x="646.848" y="365.052" clip-path="url(#clipPath2)" fill="white" width="11.4766" height="18.584" stroke="none"/>
      <rect stroke-linecap="square" x="646.848" y="365.052" clip-path="url(#clipPath2)" fill="none" width="11.4766" height="18.584" stroke-miterlimit="1.6"/>
      <text x="648.848" xml:space="preserve" y="379.1165" clip-path="url(#clipPath2)" font-family="'Verdana'" stroke="none">d</text>
      <path fill="none" d="M807.4092 480.8875 L815.1132 294.9688" clip-path="url(#clipPath2)"/>
      <path d="M815.4443 286.9756 L809.9518 298.7584 L815.0718 295.9679 L819.9433 299.1723 Z" clip-path="url(#clipPath2)" stroke="none"/>
      <rect x="806.3003" y="374.652" clip-path="url(#clipPath2)" fill="white" width="10.252" height="18.584" stroke="none"/>
      <rect stroke-linecap="square" x="806.3003" y="374.652" clip-path="url(#clipPath2)" fill="none" width="10.252" height="18.584" stroke-miterlimit="1.6"/>
      <text x="808.3004" xml:space="preserve" y="388.7165" clip-path="url(#clipPath2)" font-family="'Verdana'" stroke="none">c</text>
      <path fill="none" d="M822.6215 480.8848 L929.1385 395.1985" clip-path="url(#clipPath2)"/>
      <path d="M935.3719 390.1841 L922.8878 393.8098 L928.3593 395.8253 L929.1558 401.6016 Z" clip-path="url(#clipPath2)" stroke="none"/>
      <rect x="873.2465" y="426.252" clip-path="url(#clipPath2)" fill="white" width="11.4766" height="18.584" stroke="none"/>
      <rect stroke-linecap="square" x="873.2465" y="426.252" clip-path="url(#clipPath2)" fill="none" width="11.4766" height="18.584" stroke-miterlimit="1.6"/>
      <text x="875.2465" xml:space="preserve" y="440.3165" clip-path="url(#clipPath2)" font-family="'Verdana'" stroke="none">d</text>
    </g>
  </g>
</svg>
