<?xml version="1.0" encoding="UTF-8"?><svg xmlns="http://www.w3.org/2000/svg" xmlns:xlink="http://www.w3.org/1999/xlink" fill-opacity="1" color-rendering="auto" color-interpolation="auto" text-rendering="auto" stroke="black" stroke-linecap="square" width="659" stroke-miterlimit="10" shape-rendering="auto" stroke-opacity="1" fill="black" stroke-dasharray="none" font-weight="normal" stroke-width="1" height="479" font-family="'Dialog'" font-style="normal" stroke-linejoin="miter" font-size="12px" stroke-dashoffset="0" image-rendering="auto">
  <!--Generated by ySVG 2.5-->
  <defs id="genericDefs"/>
  <g>
    <defs id="defs1">
      <clipPath clipPathUnits="userSpaceOnUse" id="clipPath1">
        <path d="M0 0 L659 0 L659 479 L0 479 L0 0 Z"/>
      </clipPath>
      <clipPath clipPathUnits="userSpaceOnUse" id="clipPath2">
        <path d="M-124 -118 L535 -118 L535 361 L-124 361 L-124 -118 Z"/>
      </clipPath>
    </defs>
    <g fill="white" text-rendering="geometricPrecision" shape-rendering="geometricPrecision" transform="translate(124,118)" stroke="white">
      <rect x="-124" width="659" height="479" y="-118" clip-path="url(#clipPath2)" stroke="none"/>
    </g>
    <g text-rendering="geometricPrecision" stroke-miterlimit="1.45" shape-rendering="geometricPrecision" font-family="'Trebuchet MS'" transform="matrix(1,0,0,1,124,118)" stroke-linecap="butt">
      <text x="112.365" xml:space="preserve" y="49.0928" clip-path="url(#clipPath2)" stroke="none">Alice: 0, Bob: 6, Charlie: 4</text>
    </g>
    <g stroke-linecap="butt" transform="matrix(1,0,0,1,124,118)" fill="rgb(255,102,0)" text-rendering="geometricPrecision" shape-rendering="geometricPrecision" stroke="rgb(255,102,0)" stroke-width="3" stroke-miterlimit="1.45">
      <rect x="100.8926" y="32.16" clip-path="url(#clipPath2)" fill="none" width="166.5815" rx="4" ry="4" height="25.264"/>
    </g>
    <g text-rendering="geometricPrecision" stroke-miterlimit="1.45" shape-rendering="geometricPrecision" font-family="'Trebuchet MS'" transform="matrix(1,0,0,1,124,118)" stroke-linecap="butt">
      <text x="315.0635" xml:space="preserve" y="-85.6432" clip-path="url(#clipPath2)" stroke="none">Alice: 2, Bob: 4, Charlie: 4</text>
    </g>
    <g stroke-linecap="butt" transform="matrix(1,0,0,1,124,118)" fill="rgb(255,102,0)" text-rendering="geometricPrecision" shape-rendering="geometricPrecision" stroke="rgb(255,102,0)" stroke-width="4" stroke-miterlimit="1.45">
      <rect x="297.9911" y="-102.576" clip-path="url(#clipPath2)" fill="none" width="177.7815" rx="4" ry="4" height="25.264"/>
    </g>
    <g text-rendering="geometricPrecision" stroke-miterlimit="1.45" shape-rendering="geometricPrecision" font-family="'Trebuchet MS'" transform="matrix(1,0,0,1,124,118)" stroke-linecap="butt">
      <text x="118.237" xml:space="preserve" y="337.4368" clip-path="url(#clipPath2)" stroke="none">Alice: 10, Bob: 0, Charlie: 0</text>
      <rect x="111.9111" y="320.504" clip-path="url(#clipPath2)" fill="none" width="162.5815" rx="4" ry="4" height="25.264"/>
    </g>
    <g fill="rgb(255,255,204)" text-rendering="geometricPrecision" shape-rendering="geometricPrecision" transform="matrix(1,0,0,1,124,118)" stroke="rgb(255,255,204)">
      <rect x="83.6282" y="179.296" clip-path="url(#clipPath2)" width="162.5815" rx="4" ry="4" height="25.264" stroke="none"/>
    </g>
    <g text-rendering="geometricPrecision" stroke-miterlimit="1.45" shape-rendering="geometricPrecision" font-family="'Trebuchet MS'" transform="matrix(1,0,0,1,124,118)" stroke-linecap="butt">
      <text x="93.1005" xml:space="preserve" y="196.2288" clip-path="url(#clipPath2)" stroke="none">Alice: 4, Bob: 6, Charlie: 0</text>
      <rect x="83.6282" y="179.296" clip-path="url(#clipPath2)" fill="none" width="162.5815" rx="4" ry="4" height="25.264"/>
      <text x="-26.6965" xml:space="preserve" y="244.8328" clip-path="url(#clipPath2)" stroke="none">Alice: 3, Bob: 0, Charlie: 7</text>
      <rect x="-38.1689" y="227.9" clip-path="url(#clipPath2)" fill="none" width="166.5815" rx="4" ry="4" height="25.264"/>
    </g>
    <g fill="rgb(255,255,204)" text-rendering="geometricPrecision" shape-rendering="geometricPrecision" transform="matrix(1,0,0,1,124,118)" stroke="rgb(255,255,204)">
      <rect x="234.5911" y="135.296" clip-path="url(#clipPath2)" width="162.5815" rx="4" ry="4" height="25.264" stroke="none"/>
    </g>
    <g text-rendering="geometricPrecision" stroke-miterlimit="1.45" shape-rendering="geometricPrecision" font-family="'Trebuchet MS'" transform="matrix(1,0,0,1,124,118)" stroke-linecap="butt">
      <text x="244.0635" xml:space="preserve" y="152.2288" clip-path="url(#clipPath2)" stroke="none">Alice: 6, Bob: 0, Charlie: 4</text>
      <rect x="234.5911" y="135.296" clip-path="url(#clipPath2)" fill="none" width="162.5815" rx="4" ry="4" height="25.264"/>
      <text x="-97.0965" xml:space="preserve" y="170.9648" clip-path="url(#clipPath2)" stroke="none">Alice: 3, Bob: 4, Charlie: 3</text>
      <rect x="-108.5689" y="154.032" clip-path="url(#clipPath2)" fill="none" width="166.5815" rx="4" ry="4" height="25.264"/>
    </g>
    <g fill="rgb(230,255,230)" text-rendering="geometricPrecision" shape-rendering="geometricPrecision" transform="matrix(1,0,0,1,124,118)" stroke="rgb(230,255,230)">
      <rect x="210.2282" y="-17.208" clip-path="url(#clipPath2)" width="162.5815" rx="4" ry="4" height="25.264" stroke="none"/>
    </g>
    <g text-rendering="geometricPrecision" stroke-miterlimit="1.45" shape-rendering="geometricPrecision" font-family="'Trebuchet MS'" transform="matrix(1,0,0,1,124,118)" stroke-linecap="butt">
      <text x="219.7005" xml:space="preserve" y="-0.2752" clip-path="url(#clipPath2)" stroke="none">Alice: 2, Bob: 0, Charlie: 8</text>
      <rect x="210.2282" y="-17.208" clip-path="url(#clipPath2)" fill="none" width="162.5815" rx="4" ry="4" height="25.264"/>
    </g>
    <g fill="rgb(230,255,230)" text-rendering="geometricPrecision" shape-rendering="geometricPrecision" transform="matrix(1,0,0,1,124,118)" stroke="rgb(230,255,230)">
      <rect x="356.8096" y="32.16" clip-path="url(#clipPath2)" width="162.5815" rx="4" ry="4" height="25.264" stroke="none"/>
    </g>
    <g text-rendering="geometricPrecision" stroke-miterlimit="1.45" shape-rendering="geometricPrecision" font-family="'Trebuchet MS'" transform="matrix(1,0,0,1,124,118)" stroke-linecap="butt">
      <text x="366.282" xml:space="preserve" y="49.0928" clip-path="url(#clipPath2)" stroke="none">Alice: 6, Bob: 4, Charlie: 0</text>
      <rect x="356.8096" y="32.16" clip-path="url(#clipPath2)" fill="none" width="162.5815" rx="4" ry="4" height="25.264"/>
      <text x="-5.043" xml:space="preserve" y="-17.7712" clip-path="url(#clipPath2)" stroke="none">Alice: 0, Bob: 10, Charlie: 0</text>
      <rect x="-13.3689" y="-34.704" clip-path="url(#clipPath2)" fill="none" width="166.5815" rx="4" ry="4" height="25.264"/>
      <path fill="none" d="M190.6677 320.4838 L169.0234 212.4206" clip-path="url(#clipPath2)"/>
      <path d="M167.4523 204.5764 L164.9064 217.3247 L169.2198 213.4012 L174.7116 215.3608 Z" clip-path="url(#clipPath2)" stroke="none"/>
      <rect x="173.4569" y="253.24" clip-path="url(#clipPath2)" fill="white" width="11.207" height="18.584" stroke="none"/>
      <rect stroke-linecap="square" x="173.4569" y="253.24" clip-path="url(#clipPath2)" fill="none" width="11.207" height="18.584" stroke-miterlimit="1.6"/>
      <text x="175.4569" xml:space="preserve" y="267.3045" clip-path="url(#clipPath2)" font-family="'Verdana'" stroke="none">a</text>
    </g>
    <g stroke-linecap="round" transform="matrix(1,0,0,1,124,118)" stroke-dashoffset="2" text-rendering="geometricPrecision" shape-rendering="geometricPrecision" stroke-dasharray="0,8" stroke-width="2" stroke-miterlimit="1.45">
      <path fill="none" d="M167.057 179.2795 L170.5185 158.8026 L174.9765 128.6985 L179.1875 92.5914 L181.9256 66.3933" clip-path="url(#clipPath2)"/>
      <path d="M182.8612 57.442 L175.8633 70.2842 L181.8087 67.5122 L187.0524 71.4536 Z" clip-path="url(#clipPath2)" stroke="none"/>
      <rect x="169.974" y="122.408" clip-path="url(#clipPath2)" fill="white" width="10.252" height="18.584" stroke="none"/>
    </g>
    <g text-rendering="geometricPrecision" stroke-miterlimit="1.6" shape-rendering="geometricPrecision" transform="matrix(1,0,0,1,124,118)">
      <rect fill="none" x="169.974" width="10.252" height="18.584" y="122.408" clip-path="url(#clipPath2)"/>
      <text stroke-linecap="butt" x="171.974" y="136.4725" clip-path="url(#clipPath2)" font-family="'Verdana'" stroke="none" stroke-miterlimit="1.45" xml:space="preserve">c</text>
      <path fill="none" stroke-miterlimit="1.45" d="M172.9927 320.4979 L72.1031 257.4051" clip-path="url(#clipPath2)" stroke-linecap="butt"/>
      <path stroke-miterlimit="1.45" d="M65.3202 253.1633 L72.8434 263.7653 L72.9509 257.9353 L78.1456 255.2867 Z" clip-path="url(#clipPath2)" stroke-linecap="butt" stroke="none"/>
    </g>
    <g stroke-linecap="butt" transform="matrix(1,0,0,1,124,118)" fill="white" text-rendering="geometricPrecision" shape-rendering="geometricPrecision" stroke="white" stroke-miterlimit="1.45">
      <rect x="113.4236" width="11.4766" height="18.584" y="277.542" clip-path="url(#clipPath2)" stroke="none"/>
    </g>
    <g text-rendering="geometricPrecision" stroke-miterlimit="1.6" shape-rendering="geometricPrecision" transform="matrix(1,0,0,1,124,118)">
      <rect fill="none" x="113.4236" width="11.4766" height="18.584" y="277.542" clip-path="url(#clipPath2)"/>
      <text stroke-linecap="butt" x="115.4236" y="291.6065" clip-path="url(#clipPath2)" font-family="'Verdana'" stroke="none" stroke-miterlimit="1.45" xml:space="preserve">b</text>
      <path fill="none" stroke-miterlimit="1.45" d="M201.5732 320.4979 L303.1058 167.2159" clip-path="url(#clipPath2)" stroke-linecap="butt"/>
      <path stroke-miterlimit="1.45" d="M307.5236 160.5463 L296.7284 167.7895 L302.5535 168.0496 L305.0653 173.3118 Z" clip-path="url(#clipPath2)" stroke-linecap="butt" stroke="none"/>
    </g>
    <g stroke-linecap="butt" transform="matrix(1,0,0,1,124,118)" fill="white" text-rendering="geometricPrecision" shape-rendering="geometricPrecision" stroke="white" stroke-miterlimit="1.45">
      <rect x="249.4159" width="10.252" height="18.584" y="231.24" clip-path="url(#clipPath2)" stroke="none"/>
    </g>
    <g text-rendering="geometricPrecision" stroke-miterlimit="1.6" shape-rendering="geometricPrecision" transform="matrix(1,0,0,1,124,118)">
      <rect fill="none" x="249.4159" width="10.252" height="18.584" y="231.24" clip-path="url(#clipPath2)"/>
      <text stroke-linecap="butt" x="251.4159" y="245.3045" clip-path="url(#clipPath2)" font-family="'Verdana'" stroke="none" stroke-miterlimit="1.45" xml:space="preserve">c</text>
    </g>
    <g stroke-linecap="round" transform="matrix(1,0,0,1,124,118)" stroke-dashoffset="2" text-rendering="geometricPrecision" shape-rendering="geometricPrecision" stroke-dasharray="0,8" stroke-width="2" stroke-miterlimit="1.45">
      <path fill="none" d="M298.6681 135.2995 L288.7218 128.0026 L262.7948 108.2485 L229.4575 81.5914 L206.7082 63.1005" clip-path="url(#clipPath2)"/>
      <path d="M199.7242 57.4238 L206.6523 70.3038 L207.5812 63.8101 L213.7481 61.5738 Z" clip-path="url(#clipPath2)" stroke="none"/>
      <rect x="246.7434" y="90.9042" clip-path="url(#clipPath2)" fill="white" width="11.207" height="18.584" stroke="none"/>
    </g>
    <g text-rendering="geometricPrecision" stroke-miterlimit="1.6" shape-rendering="geometricPrecision" transform="matrix(1,0,0,1,124,118)">
      <rect fill="none" x="246.7434" width="11.207" height="18.584" y="90.9042" clip-path="url(#clipPath2)"/>
      <text stroke-linecap="butt" x="248.7434" y="104.9687" clip-path="url(#clipPath2)" font-family="'Verdana'" stroke="none" stroke-miterlimit="1.45" xml:space="preserve">a</text>
      <path fill="none" stroke-miterlimit="1.45" d="M33.0562 227.872 L-7.7103 185.0972" clip-path="url(#clipPath2)" stroke-linecap="butt"/>
      <path stroke-miterlimit="1.45" d="M-13.2296 179.3061 L-8.5701 191.4424 L-7.0204 185.8211 L-1.3312 184.5433 Z" clip-path="url(#clipPath2)" stroke-linecap="butt" stroke="none"/>
    </g>
    <g stroke-linecap="butt" transform="matrix(1,0,0,1,124,118)" fill="white" text-rendering="geometricPrecision" shape-rendering="geometricPrecision" stroke="white" stroke-miterlimit="1.45">
      <rect x="4.1836" width="11.4766" height="18.584" y="194.306" clip-path="url(#clipPath2)" stroke="none"/>
    </g>
    <g text-rendering="geometricPrecision" stroke-miterlimit="1.6" shape-rendering="geometricPrecision" transform="matrix(1,0,0,1,124,118)">
      <rect fill="none" x="4.1836" width="11.4766" height="18.584" y="194.306" clip-path="url(#clipPath2)"/>
      <text stroke-linecap="butt" x="6.1836" y="208.3705" clip-path="url(#clipPath2)" font-family="'Verdana'" stroke="none" stroke-miterlimit="1.45" xml:space="preserve">d</text>
      <path fill="none" stroke-miterlimit="1.45" d="M313.8655 135.3062 L294.7941 15.9255" clip-path="url(#clipPath2)" stroke-linecap="butt"/>
      <path stroke-miterlimit="1.45" d="M293.5321 8.0257 L290.4877 20.6642 L294.9518 16.913 L300.3625 19.0867 Z" clip-path="url(#clipPath2)" stroke-linecap="butt" stroke="none"/>
    </g>
    <g stroke-linecap="butt" transform="matrix(1,0,0,1,124,118)" fill="white" text-rendering="geometricPrecision" shape-rendering="geometricPrecision" stroke="white" stroke-miterlimit="1.45">
      <rect x="298.5744" width="10.252" height="18.584" y="62.384" clip-path="url(#clipPath2)" stroke="none"/>
    </g>
    <g text-rendering="geometricPrecision" stroke-miterlimit="1.6" shape-rendering="geometricPrecision" transform="matrix(1,0,0,1,124,118)">
      <rect fill="none" x="298.5744" width="10.252" height="18.584" y="62.384" clip-path="url(#clipPath2)"/>
      <text stroke-linecap="butt" x="300.5744" y="76.4485" clip-path="url(#clipPath2)" font-family="'Verdana'" stroke="none" stroke-miterlimit="1.45" xml:space="preserve">c</text>
    </g>
    <g stroke-linecap="round" transform="matrix(1,0,0,1,124,118)" stroke-dashoffset="2" text-rendering="geometricPrecision" shape-rendering="geometricPrecision" stroke-dasharray="0,8" stroke-width="2" stroke-miterlimit="1.45">
      <path fill="none" d="M313.7961 -17.1927 L367.8168 -70.9662" clip-path="url(#clipPath2)"/>
      <path d="M374.1953 -77.3155 L360.6592 -71.7781 L367.0195 -70.1725 L368.5959 -63.8049 Z" clip-path="url(#clipPath2)" stroke="none"/>
      <rect x="338.2634" y="-56.552" clip-path="url(#clipPath2)" fill="white" width="11.4766" height="18.584" stroke="none"/>
    </g>
    <g text-rendering="geometricPrecision" stroke-miterlimit="1.6" shape-rendering="geometricPrecision" transform="matrix(1,0,0,1,124,118)">
      <rect fill="none" x="338.2634" width="11.4766" height="18.584" y="-56.552" clip-path="url(#clipPath2)"/>
      <text stroke-linecap="butt" x="340.2634" y="-42.4875" clip-path="url(#clipPath2)" font-family="'Verdana'" stroke="none" stroke-miterlimit="1.45" xml:space="preserve">d</text>
      <path fill="none" stroke-miterlimit="1.45" d="M330.831 135.313 L417.0326 62.5704" clip-path="url(#clipPath2)" stroke-linecap="butt"/>
      <path stroke-miterlimit="1.45" d="M423.1466 57.411 L410.751 61.3288 L416.2683 63.2153 L417.2002 68.9713 Z" clip-path="url(#clipPath2)" stroke-linecap="butt" stroke="none"/>
    </g>
    <g stroke-linecap="butt" transform="matrix(1,0,0,1,124,118)" fill="white" text-rendering="geometricPrecision" shape-rendering="geometricPrecision" stroke="white" stroke-miterlimit="1.45">
      <rect x="371.2528" width="11.4766" height="18.584" y="87.068" clip-path="url(#clipPath2)" stroke="none"/>
    </g>
    <g text-rendering="geometricPrecision" stroke-miterlimit="1.6" shape-rendering="geometricPrecision" transform="matrix(1,0,0,1,124,118)">
      <rect fill="none" x="371.2528" width="11.4766" height="18.584" y="87.068" clip-path="url(#clipPath2)"/>
      <text stroke-linecap="butt" x="373.2528" y="101.1325" clip-path="url(#clipPath2)" font-family="'Verdana'" stroke="none" stroke-miterlimit="1.45" xml:space="preserve">d</text>
    </g>
    <g stroke-linecap="round" transform="matrix(1,0,0,1,124,118)" stroke-dashoffset="2" text-rendering="geometricPrecision" shape-rendering="geometricPrecision" stroke-dasharray="0,8" stroke-width="2" stroke-miterlimit="1.45">
      <path fill="none" d="M447.4581 32.1855 L439.37 7.45 L434.0989 -6.895 L427.5555 -21.58 L419.7398 -36.6049 L410.6519 -51.9698 L399.5727 -69.6696" clip-path="url(#clipPath2)"/>
      <path d="M394.7975 -77.2983 L397.1923 -62.8707 L400.1696 -68.716 L406.7282 -68.8397 Z" clip-path="url(#clipPath2)" stroke="none"/>
      <rect x="424.974" y="-30.192" clip-path="url(#clipPath2)" fill="white" width="10.252" height="18.584" stroke="none"/>
    </g>
    <g text-rendering="geometricPrecision" stroke-miterlimit="1.6" shape-rendering="geometricPrecision" transform="matrix(1,0,0,1,124,118)">
      <rect fill="none" x="424.974" width="10.252" height="18.584" y="-30.192" clip-path="url(#clipPath2)"/>
      <text stroke-linecap="butt" x="426.974" y="-16.1275" clip-path="url(#clipPath2)" font-family="'Verdana'" stroke="none" stroke-miterlimit="1.45" xml:space="preserve">c</text>
      <path fill="none" stroke-miterlimit="1.45" d="M151.4231 179.2955 L112.6705 143.022 L102.6513 132.7643 L93.968 121.998 L86.6206 110.7233 L80.609 98.94 L75.9334 86.6483 L72.5937 73.848 L70.5898 60.5393 L69.9219 46.722 L69.9219 -1.4083" clip-path="url(#clipPath2)" stroke-linecap="butt"/>
      <path stroke-miterlimit="1.45" d="M69.9219 -9.4083 L64.9219 2.5917 L69.9219 -0.4083 L74.9219 2.5917 Z" clip-path="url(#clipPath2)" stroke-linecap="butt" stroke="none"/>
    </g>
    <g stroke-linecap="butt" transform="matrix(1,0,0,1,124,118)" fill="white" text-rendering="geometricPrecision" shape-rendering="geometricPrecision" stroke="white" stroke-miterlimit="1.45">
      <rect x="64.7959" width="10.252" height="18.584" y="44.638" clip-path="url(#clipPath2)" stroke="none"/>
    </g>
    <g text-rendering="geometricPrecision" stroke-miterlimit="1.6" shape-rendering="geometricPrecision" transform="matrix(1,0,0,1,124,118)">
      <rect fill="none" x="64.7959" width="10.252" height="18.584" y="44.638" clip-path="url(#clipPath2)"/>
      <text stroke-linecap="butt" x="66.7959" y="58.7025" clip-path="url(#clipPath2)" font-family="'Verdana'" stroke="none" stroke-miterlimit="1.45" xml:space="preserve">c</text>
    </g>
  </g>
</svg>
