<?xml version="1.0" encoding="UTF-8"?><svg xmlns="http://www.w3.org/2000/svg" xmlns:xlink="http://www.w3.org/1999/xlink" fill-opacity="1" color-rendering="auto" color-interpolation="auto" text-rendering="auto" stroke="black" stroke-linecap="square" width="990" stroke-miterlimit="10" shape-rendering="auto" stroke-opacity="1" fill="black" stroke-dasharray="none" font-weight="normal" stroke-width="1" height="386" font-family="'Dialog'" font-style="normal" stroke-linejoin="miter" font-size="12px" stroke-dashoffset="0" image-rendering="auto">
  <!--Generated by ySVG 2.5-->
  <defs id="genericDefs"/>
  <g>
    <defs id="defs1">
      <clipPath clipPathUnits="userSpaceOnUse" id="clipPath1">
        <path d="M0 0 L990 0 L990 386 L0 386 L0 0 Z"/>
      </clipPath>
      <clipPath clipPathUnits="userSpaceOnUse" id="clipPath2">
        <path d="M297 246 L1287 246 L1287 632 L297 632 L297 246 Z"/>
      </clipPath>
    </defs>
    <g fill="white" text-rendering="geometricPrecision" shape-rendering="geometricPrecision" transform="translate(-297,-246)" stroke="white">
      <rect x="297" width="990" height="386" y="246" clip-path="url(#clipPath2)" stroke="none"/>
    </g>
    <g text-rendering="geometricPrecision" stroke-miterlimit="1.45" shape-rendering="geometricPrecision" font-family="'Trebuchet MS'" transform="matrix(1,0,0,1,-297,-246)" stroke-linecap="butt">
      <text x="577.6215" xml:space="preserve" y="607.7888" clip-path="url(#clipPath2)" stroke="none">Alice: 10, Bob: 0, Charlie: 0</text>
      <rect x="563.6956" y="590.856" clip-path="url(#clipPath2)" fill="none" width="177.7815" rx="4" ry="4" height="25.264"/>
    </g>
    <g fill="rgb(255,255,204)" text-rendering="geometricPrecision" shape-rendering="geometricPrecision" transform="matrix(1,0,0,1,-297,-246)" stroke="rgb(255,255,204)">
      <rect x="312.597" y="408.112" clip-path="url(#clipPath2)" width="177.7815" rx="4" ry="4" height="25.264" stroke="none"/>
    </g>
    <g text-rendering="geometricPrecision" stroke-miterlimit="1.45" shape-rendering="geometricPrecision" font-family="'Trebuchet MS'" transform="matrix(1,0,0,1,-297,-246)" stroke-linecap="butt">
      <text x="329.6694" xml:space="preserve" y="425.0448" clip-path="url(#clipPath2)" stroke="none">Alice: 4, Bob: 6, Charlie: 0</text>
      <rect x="312.597" y="408.112" clip-path="url(#clipPath2)" fill="none" width="177.7815" rx="4" ry="4" height="25.264"/>
      <text x="580.7679" xml:space="preserve" y="425.0448" clip-path="url(#clipPath2)" stroke="none">Alice: 3, Bob: 0, Charlie: 7</text>
      <rect x="563.6956" y="408.112" clip-path="url(#clipPath2)" fill="none" width="177.7815" rx="4" ry="4" height="25.264"/>
    </g>
    <g fill="rgb(255,255,204)" text-rendering="geometricPrecision" shape-rendering="geometricPrecision" transform="matrix(1,0,0,1,-297,-246)" stroke="rgb(255,255,204)">
      <rect x="834.9941" y="408.112" clip-path="url(#clipPath2)" width="177.7815" rx="4" ry="4" height="25.264" stroke="none"/>
    </g>
    <g text-rendering="geometricPrecision" stroke-miterlimit="1.45" shape-rendering="geometricPrecision" font-family="'Trebuchet MS'" transform="matrix(1,0,0,1,-297,-246)" stroke-linecap="butt">
      <text x="852.0665" xml:space="preserve" y="425.0448" clip-path="url(#clipPath2)" stroke="none">Alice: 6, Bob: 0, Charlie: 4</text>
      <rect x="834.9941" y="408.112" clip-path="url(#clipPath2)" fill="none" width="177.7815" rx="4" ry="4" height="25.264"/>
      <text x="580.7679" xml:space="preserve" y="278.6448" clip-path="url(#clipPath2)" stroke="none">Alice: 3, Bob: 4, Charlie: 3</text>
      <rect x="563.6956" y="261.712" clip-path="url(#clipPath2)" fill="none" width="177.7815" rx="4" ry="4" height="25.264"/>
    </g>
    <g fill="rgb(230,255,230)" text-rendering="geometricPrecision" shape-rendering="geometricPrecision" transform="matrix(1,0,0,1,-297,-246)" stroke="rgb(230,255,230)">
      <rect x="885.6126" y="261.712" clip-path="url(#clipPath2)" width="177.7815" rx="4" ry="4" height="25.264" stroke="none"/>
    </g>
    <g text-rendering="geometricPrecision" stroke-miterlimit="1.45" shape-rendering="geometricPrecision" font-family="'Trebuchet MS'" transform="matrix(1,0,0,1,-297,-246)" stroke-linecap="butt">
      <text x="902.685" xml:space="preserve" y="278.6448" clip-path="url(#clipPath2)" stroke="none">Alice: 2, Bob: 0, Charlie: 8</text>
      <rect x="885.6126" y="261.712" clip-path="url(#clipPath2)" fill="none" width="177.7815" rx="4" ry="4" height="25.264"/>
    </g>
    <g fill="rgb(230,255,230)" text-rendering="geometricPrecision" shape-rendering="geometricPrecision" transform="matrix(1,0,0,1,-297,-246)" stroke="rgb(230,255,230)">
      <rect x="1093.3941" y="261.712" clip-path="url(#clipPath2)" width="177.7815" rx="4" ry="4" height="25.264" stroke="none"/>
    </g>
    <g text-rendering="geometricPrecision" stroke-miterlimit="1.45" shape-rendering="geometricPrecision" font-family="'Trebuchet MS'" transform="matrix(1,0,0,1,-297,-246)" stroke-linecap="butt">
      <text x="1110.4664" xml:space="preserve" y="278.6448" clip-path="url(#clipPath2)" stroke="none">Alice: 6, Bob: 4, Charlie: 0</text>
      <rect x="1093.3941" y="261.712" clip-path="url(#clipPath2)" fill="none" width="177.7815" rx="4" ry="4" height="25.264"/>
      <path fill="none" d="M635.2068 590.8396 L425.331 438.0966" clip-path="url(#clipPath2)"/>
      <path d="M418.8626 433.389 L425.6229 444.493 L426.1395 438.685 L431.5073 436.4076 Z" clip-path="url(#clipPath2)" stroke="none"/>
      <rect x="521.4335" y="502.824" clip-path="url(#clipPath2)" fill="white" width="11.207" height="18.584" stroke="none"/>
      <rect stroke-linecap="square" x="521.4335" y="502.824" clip-path="url(#clipPath2)" fill="none" width="11.207" height="18.584" stroke-miterlimit="1.6"/>
      <text x="523.4335" xml:space="preserve" y="516.8885" clip-path="url(#clipPath2)" font-family="'Verdana'" stroke="none">a</text>
      <path fill="none" d="M652.5863 590.8619 L652.5863 441.4115" clip-path="url(#clipPath2)"/>
      <path d="M652.5863 433.4115 L647.5863 445.4115 L652.5863 442.4115 L657.5863 445.4115 Z" clip-path="url(#clipPath2)" stroke="none"/>
      <rect x="646.848" y="502.824" clip-path="url(#clipPath2)" fill="white" width="11.4766" height="18.584" stroke="none"/>
      <rect stroke-linecap="square" x="646.848" y="502.824" clip-path="url(#clipPath2)" fill="none" width="11.4766" height="18.584" stroke-miterlimit="1.6"/>
      <text x="648.848" xml:space="preserve" y="516.8885" clip-path="url(#clipPath2)" font-family="'Verdana'" stroke="none">b</text>
      <path fill="none" d="M671.3639 590.8396 L898.4771 437.8584" clip-path="url(#clipPath2)"/>
      <path d="M905.1122 433.389 L892.3662 435.9461 L897.6478 438.4171 L897.9529 444.24 Z" clip-path="url(#clipPath2)" stroke="none"/>
      <rect x="783.1096" y="502.824" clip-path="url(#clipPath2)" fill="white" width="10.252" height="18.584" stroke="none"/>
      <rect stroke-linecap="square" x="783.1096" y="502.824" clip-path="url(#clipPath2)" fill="none" width="10.252" height="18.584" stroke-miterlimit="1.6"/>
      <text x="785.1096" xml:space="preserve" y="516.8885" clip-path="url(#clipPath2)" font-family="'Verdana'" stroke="none">c</text>
      <path fill="none" d="M652.5863 408.127 L652.5863 294.9841" clip-path="url(#clipPath2)"/>
      <path d="M652.5863 286.9841 L647.5863 298.9841 L652.5863 295.9841 L657.5863 298.9841 Z" clip-path="url(#clipPath2)" stroke="none"/>
      <rect x="646.848" y="338.252" clip-path="url(#clipPath2)" fill="white" width="11.4766" height="18.584" stroke="none"/>
      <rect stroke-linecap="square" x="646.848" y="338.252" clip-path="url(#clipPath2)" fill="none" width="11.4766" height="18.584" stroke-miterlimit="1.6"/>
      <text x="648.848" xml:space="preserve" y="352.3165" clip-path="url(#clipPath2)" font-family="'Verdana'" stroke="none">d</text>
      <path fill="none" d="M928.2472 408.127 L967.5187 294.545" clip-path="url(#clipPath2)"/>
      <path d="M970.1329 286.9841 L961.4861 296.6915 L967.192 295.4901 L970.9371 299.9592 Z" clip-path="url(#clipPath2)" stroke="none"/>
      <rect x="944.0681" y="338.252" clip-path="url(#clipPath2)" fill="white" width="10.252" height="18.584" stroke="none"/>
      <rect stroke-linecap="square" x="944.0681" y="338.252" clip-path="url(#clipPath2)" fill="none" width="10.252" height="18.584" stroke-miterlimit="1.6"/>
      <text x="946.0681" xml:space="preserve" y="352.3165" clip-path="url(#clipPath2)" font-family="'Verdana'" stroke="none">c</text>
      <path fill="none" d="M946.1857 408.1091 L1153.0459 290.9097" clip-path="url(#clipPath2)"/>
      <path d="M1160.0065 286.9662 L1147.101 288.5311 L1152.1759 291.4026 L1152.0304 297.2318 Z" clip-path="url(#clipPath2)" stroke="none"/>
      <rect x="1047.3465" y="338.252" clip-path="url(#clipPath2)" fill="white" width="11.4766" height="18.584" stroke="none"/>
      <rect stroke-linecap="square" x="1047.3465" y="338.252" clip-path="url(#clipPath2)" fill="none" width="11.4766" height="18.584" stroke-miterlimit="1.6"/>
      <text x="1049.3466" xml:space="preserve" y="352.3165" clip-path="url(#clipPath2)" font-family="'Verdana'" stroke="none">d</text>
    </g>
  </g>
</svg>
