<svg id="Layer_1" data-name="Layer 1" xmlns="http://www.w3.org/2000/svg" viewBox="0 0 1920 453"><defs><style>.cls-1{fill:#e1372d;}</style></defs><title>CasperLabs_Logo_Horizontal_RGB</title><circle class="cls-1" cx="111.02" cy="183.85" r="21.14"/><circle class="cls-1" cx="51.88" cy="330.21" r="21.14"/><circle class="cls-1" cx="156.57" cy="35.67" r="21.14"/><circle class="cls-1" cx="237.66" cy="102.08" r="21.14"/><circle class="cls-1" cx="321.37" cy="45.99" r="21.14"/><circle class="cls-1" cx="377.91" cy="88.27" r="21.14"/><circle class="cls-1" cx="317.01" cy="316.21" r="21.14"/><circle class="cls-1" cx="301.69" cy="416.49" r="21.14"/><circle class="cls-1" cx="216.51" cy="431.05" r="21.14"/><circle class="cls-1" cx="159.09" cy="330.07" r="21.14"/><circle class="cls-1" cx="44" cy="162.46" r="30.48"/><circle class="cls-1" cx="97.64" cy="269.11" r="30.48"/><circle class="cls-1" cx="236.12" cy="31.29" r="30.48"/><circle class="cls-1" cx="158.03" cy="110.69" r="30.48"/><circle class="cls-1" cx="317.01" cy="123.22" r="30.48"/><circle class="cls-1" cx="119.18" cy="389.57" r="30.48"/><circle class="cls-1" cx="239.12" cy="362.01" r="30.48"/><circle class="cls-1" cx="371.53" cy="368.5" r="24.38"/><circle class="cls-1" cx="26.6" cy="248.7" r="24.38"/><circle class="cls-1" cx="93.08" cy="76.72" r="24.38"/><polygon class="cls-1" points="319.21 319.95 314.81 312.46 237.49 357.93 128.9 382.88 162.7 332.49 155.49 327.65 121.56 378.22 102.25 270.2 100.67 265.46 52.53 169.74 109.7 187.99 112.34 179.71 56.07 161.75 160.56 114.31 232 41.67 233.31 102.17 242 101.98 240.72 43.09 316.09 128.75 380.07 92.04 375.74 84.51 317.92 117.69 247.51 37.66 320.63 50.27 322.11 41.71 238.37 27.27 234.62 26.62 231.74 29.55 162.17 100.28 160.91 35.59 152.22 35.76 153.63 107.92 54.45 152.95 96.85 78.88 89.31 74.57 40.93 159.09 38.09 160.38 89.3 262.19 27.8 244.53 25.4 252.88 90.39 271.54 48.4 327.6 55.35 332.81 95.13 279.71 114.59 388.61 115.31 392.64 118.77 394.12 214.81 435.04 218.22 427.05 133.17 390.81 237.93 366.74 298.84 419.77 304.54 413.22 251.42 366.96 371.32 372.84 371.74 364.16 253.86 358.38 319.21 319.95"/><path d="M551.92,145.35c14.56,0,30.45,2.68,41.64,8.06l-2.46,29.1c-9.63-6.49-22.39-9.4-35.15-9.4-32.91,0-51.49,21.49-51.49,53.28,0,33.58,19.7,53.5,52.16,53.5,13,0,25.08-3.13,35.38-10.29l2.68,29.77c-12.76,6-28.2,8.28-41.86,8.28-51.27,0-83.73-32.23-83.73-81.26C469.09,178.48,501.33,145.35,551.92,145.35Z"/><path d="M721.27,269.82H664.85l-11,34.92H616.72L671.35,148h43.43L769.4,304.74H732.24Zm-47.91-27.31h39.4l-19.7-63.36Z"/><path d="M851.23,145.35c15.45,0,30.89,2.68,43.65,7.83l-2.46,28.21c-12.76-5.37-26.41-8.28-38.73-8.28-18.13,0-25.29,6.27-25.29,15,0,9.62,6.26,16.34,27.75,23.5,32.91,11,47,25.52,47,49.48,0,29.32-19.93,46.34-60.67,46.34-17,0-35.15-3.58-48.8-10.52l2.68-30.67c12.54,8.73,28.43,13.43,45,13.43,15.89,0,26.42-5.37,26.42-17,0-11-6.5-17-30-24.62C807.13,228.4,793,213,793,189.45,793,162.14,813.84,145.35,851.23,145.35Z"/><path d="M989.37,250.79H970.12v54H935.19V148h54.18c38.95,0,62.91,17.47,62.91,51.27S1028.32,250.79,989.37,250.79Zm-3.13-76.34H970.12v49.92h16.12c21,0,30.67-7.16,30.67-25.07S1007.28,174.45,986.24,174.45Z"/><path d="M1081.62,148H1188v27.32h-71.42v35.37h66.27V238h-66.27v39.4H1190v27.31H1081.62Z"/><path d="M1314.89,240.27l43.2,64.47h-38L1282,245.64h-19v59.1H1228V148h56.64c35.37,0,61.78,15.9,61.78,48.14C1346.45,217.21,1334.37,232.66,1314.89,240.27Zm-32.46-65.82H1263v44.77h19.48c18.13,0,28.65-7.83,28.65-23.05S1300.56,174.45,1282.43,174.45Z"/><path d="M1390.33,148h14.33V292.2h86.86v12.54H1390.33Z"/><path d="M1618.9,262h-75.67l-16.56,42.76H1511L1573,148h16.12l62,156.71h-15.67Zm-70.74-12.53H1614l-32.91-85.52Z"/><path d="M1681.38,148h51.71a69.23,69.23,0,0,1,21.27,3,48.62,48.62,0,0,1,16,8.39,36,36,0,0,1,10.08,12.87,38.81,38.81,0,0,1,3.47,16.46q0,12.54-5.42,20.93a33,33,0,0,1-15.79,12.65q14.52,4.48,21.78,14.44t7.26,24.29q0,20.6-14.63,32.12T1735,304.74h-53.61Zm87.75,41q0-13.42-9.74-20.93t-27.87-7.5H1695.7v56.64H1730q20.16,0,29.67-6.38T1769.13,189Zm7.84,72.09q0-17-11.42-24.18t-34.25-7.16h-35.6V292.2h37.84Q1777,292.2,1777,261.09Z"/><path d="M1907.26,165.72a69,69,0,0,0-16.68-5.71,91.87,91.87,0,0,0-18-1.68q-18.36,0-28.1,6.94t-9.74,18.36a25.45,25.45,0,0,0,8,18.8q7.95,7.84,26.53,14.11a159.3,159.3,0,0,1,21.94,9,63.57,63.57,0,0,1,15.11,10.41,36,36,0,0,1,8.73,12.88,43.88,43.88,0,0,1,2.8,16.11q0,19.71-14.22,31.12t-40.41,11.42a92.87,92.87,0,0,1-22.16-2.69,73.67,73.67,0,0,1-19.47-7.61l1.12-15a77.48,77.48,0,0,0,19.92,9.18,74.08,74.08,0,0,0,21.27,3.14q19.7,0,29.44-7.84t9.73-21.27a30.21,30.21,0,0,0-2-11.3,26.73,26.73,0,0,0-6.61-9.41,49.49,49.49,0,0,0-12-8.06,123.65,123.65,0,0,0-18.14-7q-23.05-7.38-33.69-17.91T1820,183.85a33.31,33.31,0,0,1,3.81-15.89,35.89,35.89,0,0,1,10.63-12.2A50.15,50.15,0,0,1,1851,148a82.19,82.19,0,0,1,21.83-2.68A115.09,115.09,0,0,1,1892,146.8a81.07,81.07,0,0,1,16.34,4.59Z"/></svg>